/* XPM */
static const char * config_curves_xpm[] = {
"32 32 234 2",
"  	c #000000",
". 	c #808080",
"+ 	c #FFFFFF",
"@ 	c #FEFEFE",
"# 	c #FDFDFD",
"$ 	c #FCFCFC",
"% 	c #FBFBFB",
"& 	c #FF00FF",
"* 	c #D000D0",
"= 	c #A100A1",
"- 	c #FAFAFA",
"; 	c #F9F9F9",
"> 	c #F8F8F8",
", 	c #F900F9",
"' 	c #C900C9",
") 	c #9F009F",
"! 	c #F9F9FA",
"~ 	c #F8F8F9",
"{ 	c #F7F7F8",
"] 	c #F7F7F7",
"^ 	c #F6F6F7",
"/ 	c #F5F5F6",
"( 	c #F4F4F5",
"_ 	c #F400F4",
": 	c #C200C2",
"< 	c #9E009E",
"[ 	c #F6F6F6",
"} 	c #F5F5F5",
"| 	c #F4F4F4",
"1 	c #F3F3F3",
"2 	c #F2F2F2",
"3 	c #F1F1F1",
"4 	c #EF00EF",
"5 	c #BC00BC",
"6 	c #9C009C",
"7 	c #F3F3F4",
"8 	c #F0F0F1",
"9 	c #EFEFF0",
"0 	c #EEEEEF",
"a 	c #EDEDEE",
"b 	c #E900E9",
"c 	c #B500B5",
"d 	c #9B009B",
"e 	c #F1F1F2",
"f 	c #F0F0F0",
"g 	c #EDEDED",
"h 	c #EBEBEC",
"i 	c #EAEAEB",
"j 	c #FAFAFB",
"k 	c #FBFBFC",
"l 	c #E400E4",
"m 	c #AE00AE",
"n 	c #990099",
"o 	c #ECECEC",
"p 	c #E8E8E9",
"q 	c #E7E7E8",
"r 	c #DF00DF",
"s 	c #A800A8",
"t 	c #980098",
"u 	c #EFEFEF",
"v 	c #EBEBEB",
"w 	c #E9E9E9",
"x 	c #E7E7E7",
"y 	c #E5E5E5",
"z 	c #E3E3E4",
"A 	c #0000FF",
"B 	c #0000D0",
"C 	c #0000A1",
"D 	c #D900D9",
"E 	c #970097",
"F 	c #E6E6E7",
"G 	c #E4E4E5",
"H 	c #E2E2E3",
"I 	c #E0E0E1",
"J 	c #0000F7",
"K 	c #0000C7",
"L 	c #00009F",
"M 	c #D400D4",
"N 	c #9A009A",
"O 	c #950095",
"P 	c #E3E3E5",
"Q 	c #E1E1E2",
"R 	c #DEDEE0",
"S 	c #DCDCDE",
"T 	c #0000F0",
"U 	c #0000BE",
"V 	c #00009D",
"W 	c #CF00CF",
"X 	c #940094",
"Y 	c #E1E1E1",
"Z 	c #DEDEDF",
"` 	c #DBDBDC",
" .	c #D9D9DA",
"..	c #0000E9",
"+.	c #0000B5",
"@.	c #00009B",
"#.	c #8D008D",
"$.	c #920092",
"%.	c #D8D8D9",
"&.	c #D5D5D7",
"*.	c #F2F2F3",
"=.	c #0000E2",
"-.	c #0000AC",
";.	c #000099",
">.	c #C400C4",
",.	c #860086",
"'.	c #910091",
").	c #E5E5E6",
"!.	c #DBDBDD",
"~.	c #D8D8DA",
"{.	c #D2D2D4",
"].	c #0000DB",
"^.	c #0000A3",
"/.	c #000097",
"(.	c #BF00BF",
"_.	c #800080",
":.	c #900090",
"<.	c #CFCFD1",
"[.	c #0000D4",
"}.	c #00009A",
"|.	c #000095",
"1.	c #00FF00",
"2.	c #00D000",
"3.	c #00A100",
"4.	c #0000CD",
"5.	c #000091",
"6.	c #000093",
"7.	c #B900B9",
"8.	c #8E008E",
"9.	c #DFDFE0",
"0.	c #D5D5D6",
"a.	c #D1D1D3",
"b.	c #CECED0",
"c.	c #CBCBCD",
"d.	c #00F200",
"e.	c #00C000",
"f.	c #009D00",
"g.	c #0000C6",
"h.	c #000088",
"i.	c #B400B4",
"j.	c #C8C8CA",
"k.	c #00E500",
"l.	c #00B000",
"m.	c #009A00",
"n.	c #0000BF",
"o.	c #000080",
"p.	c #000090",
"q.	c #AF00AF",
"r.	c #8C008C",
"s.	c #D7D7D9",
"t.	c #D4D4D6",
"u.	c #CDCDD0",
"v.	c #CACACD",
"w.	c #C7C7CA",
"x.	c #C4C4C7",
"y.	c #00D800",
"z.	c #00A000",
"A.	c #009600",
"B.	c #0000B8",
"C.	c #00008E",
"D.	c #AA00AA",
"E.	c #8A008A",
"F.	c #C1C1C4",
"G.	c #00CB00",
"H.	c #009000",
"I.	c #009300",
"J.	c #0000B1",
"K.	c #00008C",
"L.	c #E9E9EA",
"M.	c #A400A4",
"N.	c #890089",
"O.	c #D3D3D5",
"P.	c #FF0000",
"Q.	c #D00000",
"R.	c #A10000",
"S.	c #BEBEC0",
"T.	c #ECECED",
"U.	c #00BF00",
"V.	c #008000",
"W.	c #0000AA",
"X.	c #00008A",
"Y.	c #880088",
"Z.	c #E90000",
"`.	c #B50000",
" +	c #9B0000",
".+	c #BABABD",
"++	c #CCCCCE",
"@+	c #D40000",
"#+	c #9A0000",
"$+	c #950000",
"%+	c #B7B7BA",
"&+	c #00B200",
"*+	c #008C00",
"=+	c #00009C",
"-+	c #000087",
";+	c #DCDCDD",
">+	c #850085",
",+	c #BF0000",
"'+	c #800000",
")+	c #900000",
"!+	c #B4B4B7",
"~+	c #00A500",
"{+	c #008900",
"]+	c #000085",
"^+	c #8F008F",
"/+	c #840084",
"(+	c #C4C4C6",
"_+	c #B0B0B4",
":+	c #009900",
"<+	c #008600",
"[+	c #000083",
"}+	c #D4D4D5",
"|+	c #820082",
"1+	c #C0C0C2",
"2+	c #AA0000",
"3+	c #8A0000",
"4+	c #ADADB0",
"5+	c #008300",
"6+	c #000081",
"7+	c #810081",
"8+	c #BCBCBF",
"9+	c #850000",
"0+	c #AAAAAD",
"a+	c #B8B8BB",
"b+	c #A6A6AA",
"c+	c #D6D6D8",
"d+	c #C7C7C9",
"e+	c #B5B5B8",
"f+	c #A3A3A7",
"g+	c #D2D2D3",
"h+	c #C3C3C5",
"i+	c #B1B1B4",
"j+	c #AFAFB2",
"k+	c #A0A0A4",
"                                                              . ",
"  + + + + + + + + + + + + + + + + + + + + + + + + + + + + +   . ",
"  @ @ @ @ @ @ @ @ @ @ @ @ @ @ +           # # $ $ $ % % % %   . ",
"  # # # # # # # @ @ @ @ @ @ @ +   & * =   . % % - - ; ; > >   . ",
"  $ $ $ $ $ # # # # # @ @ @ @ +   , ' )   . ! ~ { ] ^ / ( (   . ",
"  % % % % $ $ $ # # # # @ @ @ +   _ : <   . > ] [ } | 1 2 3   . ",
"  - - - % % % $ $ $ # # # @ @ +   4 5 6   . [ ( 7 2 8 9 0 a   . ",
"  ; ; ; - - % % $ $ $ # # @ @ +   b c d   . ( 1 e f 0 g h i   . ",
"  ~ ~ ; ! - j % k $ $ # # @ @ +   l m n   . 1 3 9 a o i p q   . ",
"  { { ~ ~ ! ! j %           @ +   r s t   . 3 u g v w x y z   . ",
"  ^ ^ { { ~ ; ! j   A B C   . +   D = E   . 9 g v p F G H I   . ",
"  / / ^ ] { ~ ; -   J K L   . +   M N O   . a h p F P Q R S   . ",
"  ( ( / ^ ] { ~ !   T U V   . +   W X X   . o w F z Y Z `  .  . ",
"  7 7 ( / ^ ] > ;   ..+.@.  . +   ' #.$.  . i q G Q Z ` %.&.  . ",
"  *.*.7 ( / ^ { ~   =.-.;.  . +   >.,.'.  . p ).H R !.~.&.{.  . ",
"  *.*.7 ( / ^ { ~   ].^./.  . +   (._.:.  . q z I S  .&.{.<.  . ",
"  *.          { ~   [.}.|.  . +   (._.:.  . q z I S  .&.{.<.  . ",
"  e   1.2.3.  . /   4.5.6.  . -   7._.8.  . H 9.!.%.0.a.b.c.  . ",
"  8   d.e.f.  . 1   g.h.5.  . [   i._.#.  . 9.` %.0.a.b.c.j.  . ",
"  9   k.l.m.  . 8   n.o.p.  . 2   q._.r.  . ` s.t.a.u.v.w.x.  . ",
"  0   y.z.A.  . a   B.o.C.  . a   D._.E.  . s.          x.F.  . ",
"  a   G.H.I.  . h   J.o.K.  . L.  M._.N.  . O.  P.Q.R.  . S.  . ",
"  T.  U.V.H.  . p   W.o.X.  . ).  ) _.Y.  . <.  Z.`. +  . .+  . ",
"  T.  U.V.H.  . F   ^.o.h.  . Q   N _.,.  . ++  @+#+$+  . %+  . ",
"  h   &+V.*+  . z   =+o.-+  . ;+  O _.>+  . j.  ,+'+)+  . !+  . ",
"  i   ~+V.{+  . Q   |.o.]+  . %.  ^+_./+  . (+  ,+'+)+  . _+  . ",
"  L.  :+V.<+  . Z   C.o.[+  . }+  E._.|+  . 1+  2+'+3+  . 4+  . ",
"  p   *+V.5+  . !.  -+o.6+  . <.  >+_.7+  . 8+  $+'+9+  . 0+  . ",
"  q   V.V.V.  .  .  o.o.o.  . c.  _._._.  . a+  '+'+'+  . b+  . ",
"  F           . c+          . d+          . e+          . f+  . ",
"  F z . . . . . t.g+. . . . . h+1+. . . . . i+j+. . . . . k+  . ",
"                                                              . "};
