<?xml version="1.0" encoding="UTF-8" standalone="no"?>
<!-- Created with Inkscape (http://www.inkscape.org/) -->
<svg
   xmlns:dc="http://purl.org/dc/elements/1.1/"
   xmlns:cc="http://web.resource.org/cc/"
   xmlns:rdf="http://www.w3.org/1999/02/22-rdf-syntax-ns#"
   xmlns:svg="http://www.w3.org/2000/svg"
   xmlns="http://www.w3.org/2000/svg"
   xmlns:xlink="http://www.w3.org/1999/xlink"
   xmlns:sodipodi="http://sodipodi.sourceforge.net/DTD/sodipodi-0.dtd"
   xmlns:inkscape="http://www.inkscape.org/namespaces/inkscape"
   width="32"
   height="32"
   id="svg3356"
   sodipodi:version="0.32"
   inkscape:version="0.45"
   version="1.0"
   sodipodi:docbase="/data/thzs/scidavis/artwork"
   sodipodi:docname="scidavis-icon1e.svg"
   inkscape:output_extension="org.inkscape.output.svg.inkscape"
   inkscape:export-filename="/data/thzs/scidavis/artwork/scidavis-icon1d2.png"
   inkscape:export-xdpi="90"
   inkscape:export-ydpi="90"
   sodipodi:modified="true">
  <sodipodi:namedview
     id="base"
     pagecolor="#ffffff"
     bordercolor="#666666"
     borderopacity="1.0"
     inkscape:pageopacity="0.0"
     inkscape:pageshadow="2"
     inkscape:zoom="10.736394"
     inkscape:cx="5.1380198"
     inkscape:cy="13.127171"
     inkscape:document-units="px"
     inkscape:current-layer="layer1"
     showgrid="false"
     gridspacingx="0.2mm"
     gridspacingy="0.2mm"
     gridanglex="8.4666669mm"
     gridanglez="8.4666669mm"
     grid_units="mm"
     width="32px"
     height="32px"
     inkscape:window-width="1272"
     inkscape:window-height="754"
     inkscape:window-x="0"
     inkscape:window-y="0" />
  <defs
     id="defs3358">
    <linearGradient
       id="linearGradient3235">
      <stop
         style="stop-color:#717171;stop-opacity:1;"
         offset="0"
         id="stop3237" />
      <stop
         style="stop-color:#070707;stop-opacity:1;"
         offset="1"
         id="stop3239" />
    </linearGradient>
    <linearGradient
       id="linearGradient5444">
      <stop
         id="stop5446"
         offset="0"
         style="stop-color:#204ba0;stop-opacity:1;" />
      <stop
         id="stop5448"
         offset="1"
         style="stop-color:#759ae3;stop-opacity:1;" />
    </linearGradient>
    <linearGradient
       id="linearGradient5432">
      <stop
         id="stop5434"
         offset="0"
         style="stop-color:#204ba0;stop-opacity:1;" />
      <stop
         id="stop5436"
         offset="1"
         style="stop-color:#759ae3;stop-opacity:1;" />
    </linearGradient>
    <linearGradient
       id="linearGradient5424">
      <stop
         id="stop5426"
         style="stop-color:#000000;stop-opacity:1;"
         offset="0" />
      <stop
         id="stop5428"
         style="stop-color:#a5a5a5;stop-opacity:1;"
         offset="1" />
    </linearGradient>
    <linearGradient
       id="linearGradient5332">
      <stop
         id="stop5334"
         style="stop-color:#ffd0d0;stop-opacity:1;"
         offset="0" />
      <stop
         id="stop5336"
         style="stop-color:#c50000;stop-opacity:1;"
         offset="1" />
    </linearGradient>
    <linearGradient
       id="linearGradient4999">
      <stop
         style="stop-color:#204ba0;stop-opacity:1;"
         offset="0"
         id="stop5001" />
      <stop
         style="stop-color:#759ae3;stop-opacity:1;"
         offset="1"
         id="stop5003" />
    </linearGradient>
    <linearGradient
       id="linearGradient3165">
      <stop
         offset="0"
         style="stop-color:#000000;stop-opacity:1;"
         id="stop3167" />
      <stop
         offset="1"
         style="stop-color:#a5a5a5;stop-opacity:1;"
         id="stop3169" />
    </linearGradient>
    <linearGradient
       id="linearGradient3152">
      <stop
         offset="0"
         style="stop-color:#ffd0d0;stop-opacity:1;"
         id="stop3154" />
      <stop
         offset="1"
         style="stop-color:#c50000;stop-opacity:1;"
         id="stop3156" />
    </linearGradient>
    <marker
       refY="0"
       id="StopS"
       refX="0"
       style="overflow:visible"
       orient="auto"
       inkscape:stockid="StopS">
      <path
         style="fill:none;fill-opacity:0.75;fill-rule:evenodd;stroke:#000000;stroke-width:1pt"
         id="path3506"
         transform="scale(0.2,0.2)"
         d="M 0,5.65 L 0,-5.65" />
    </marker>
    <marker
       refY="0"
       id="StopM"
       refX="0"
       style="overflow:visible"
       orient="auto"
       inkscape:stockid="StopM">
      <path
         style="fill:none;fill-opacity:0.75;fill-rule:evenodd;stroke:#000000;stroke-width:1pt"
         id="path3503"
         transform="scale(0.4,0.4)"
         d="M 0,5.65 L 0,-5.65" />
    </marker>
    <marker
       refY="0"
       id="StopL"
       refX="0"
       style="overflow:visible"
       orient="auto"
       inkscape:stockid="StopL">
      <path
         style="fill:none;fill-opacity:0.75;fill-rule:evenodd;stroke:#000000;stroke-width:1pt"
         id="path3500"
         transform="scale(0.8,0.8)"
         d="M 0,5.65 L 0,-5.65" />
    </marker>
    <marker
       refY="0"
       id="DistanceIn"
       refX="0"
       style="overflow:visible"
       orient="auto"
       inkscape:stockid="DistanceIn">
      <g
         id="g2300">
        <path
           style="fill:none;stroke:#ffffff;stroke-width:1.14999998;stroke-linecap:square"
           d="M 0,0 L 2,0"
           id="path2306" />
        <path
           style="fill:#000000;fill-rule:evenodd;stroke:none"
           d="M 0,0 L 13,4 L 9,0 L 13,-4 L 0,0 z "
           id="path2302" />
        <path
           style="fill:none;stroke:#000000;stroke-width:1;stroke-linecap:square"
           d="M 0,-4 L 0,40"
           id="path2304" />
      </g>
    </marker>
    <radialGradient
       inkscape:collect="always"
       r="8.485281"
       gradientUnits="userSpaceOnUse"
       xlink:href="#linearGradient3152"
       cy="643.60345"
       id="radialGradient3158"
       fx="559.09558"
       cx="559.09558"
       fy="643.60345" />
    <radialGradient
       inkscape:collect="always"
       xlink:href="#linearGradient4999"
       id="radialGradient5438"
       cx="520.36633"
       cy="658.80359"
       fx="520.36633"
       fy="658.80359"
       r="28.328125"
       gradientTransform="matrix(0.1841248,-7.8911779e-2,0.9864399,2.3016597,-338.09687,-796.7555)"
       gradientUnits="userSpaceOnUse" />
    <radialGradient
       inkscape:collect="always"
       xlink:href="#linearGradient4999"
       id="radialGradient5441"
       gradientUnits="userSpaceOnUse"
       gradientTransform="matrix(0.1841248,-7.8911779e-2,0.9864399,2.3016597,-338.09687,-796.7555)"
       cx="61.747761"
       cy="622.03717"
       fx="61.747761"
       fy="622.03717"
       r="28.328125" />
    <radialGradient
       inkscape:collect="always"
       xlink:href="#linearGradient5432"
       id="radialGradient5456"
       cx="198.94948"
       cy="681.94873"
       fx="198.94948"
       fy="681.94873"
       r="28.328125"
       gradientTransform="matrix(1.2337387,1.8513685,-0.9736971,0.6488647,617.50932,-127.08224)"
       gradientUnits="userSpaceOnUse" />
    <linearGradient
       inkscape:collect="always"
       xlink:href="#linearGradient5432"
       id="linearGradient2231"
       gradientUnits="userSpaceOnUse"
       x1="77.971024"
       y1="638.32263"
       x2="134.62727"
       y2="638.32263"
       gradientTransform="matrix(0.1741162,0,0,0.2213398,-2.5330036,-125.57628)" />
    <radialGradient
       inkscape:collect="always"
       xlink:href="#linearGradient3235"
       id="radialGradient3243"
       cx="16.046015"
       cy="15.668931"
       fx="16.046015"
       fy="15.668931"
       r="14.635307"
       gradientTransform="matrix(1.0997119,0,0,1.0883614,-1.4136961,-1.0119645)"
       gradientUnits="userSpaceOnUse" />
  </defs>
  <metadata
     id="metadata3361">
    <rdf:RDF>
      <cc:Work
         rdf:about="">
        <dc:format>image/svg+xml</dc:format>
        <dc:type
           rdf:resource="http://purl.org/dc/dcmitype/StillImage" />
      </cc:Work>
    </rdf:RDF>
  </metadata>
  <g
     inkscape:label="Ebene 1"
     id="layer1"
     inkscape:groupmode="layer">
    <rect
       style="opacity:1;fill:#ffffff;fill-opacity:1;fill-rule:evenodd;stroke:none;stroke-width:7.08661413;stroke-linecap:butt;stroke-linejoin:miter;stroke-miterlimit:4;stroke-dasharray:none;stroke-dashoffset:12.7559063;stroke-opacity:1"
       id="rect4388"
       width="32"
       height="32"
       x="0"
       y="1.2099154e-15" />
    <path
       style="fill:none;fill-rule:evenodd;stroke:url(#radialGradient3243);stroke-width:4.00277424;stroke-linecap:square;stroke-linejoin:miter;marker-start:none;stroke-miterlimit:4;stroke-dasharray:none;stroke-opacity:1"
       id="S"
       sodipodi:nodetypes="cs"
       d="M 2.1494407,29.978937 C 16.374068,29.961588 16.101346,2.1679898 30.315153,2.1040543" />
    <g
       id="g3860"
       transform="matrix(0.1741162,0,0,0.2213398,-66.865247,-111.90249)"
       style="fill:#002a7b;fill-opacity:1">
      <g
         id="g3862"
         style="fill:#002a7b;fill-opacity:1;fill-rule:evenodd;stroke:none;stroke-width:17.71653366;stroke-linecap:square;stroke-linejoin:miter;stroke-miterlimit:4;stroke-dasharray:none;stroke-opacity:1">
        <path
           id="path3864"
           d="M 484.16857,505.60727 L 475.29357,505.66977 L 470.96344,508.16977 L 479.83844,508.10727 L 484.16857,505.60727 z "
           style="fill:#002a7b;fill-opacity:1" />
        <path
           id="path3866"
           d="M 475.29357,505.66977 L 456.32483,505.66977 L 451.9947,508.16977 L 470.96344,508.16977 L 475.29357,505.66977 z "
           style="fill:#002a7b;fill-opacity:1" />
        <path
           id="path3868"
           d="M 456.32483,505.66977 L 447.44983,505.66977 L 443.1197,508.16977 L 451.9947,508.16977 L 456.32483,505.66977 z "
           style="fill:#002a7b;fill-opacity:1" />
        <path
           id="path3870"
           d="M 447.44983,505.66977 L 447.44983,523.38852 L 443.1197,525.88852 L 443.1197,508.16977 L 447.44983,505.66977 z "
           style="fill:#002a7b;fill-opacity:1" />
        <path
           id="path3872"
           d="M 447.44983,523.38852 L 456.32483,523.38852 L 451.9947,525.88852 L 443.1197,525.88852 L 447.44983,523.38852 z "
           style="fill:#002a7b;fill-opacity:1" />
        <path
           id="path3874"
           d="M 456.32483,523.38852 L 466.57483,523.38852 L 462.2447,525.88852 L 451.9947,525.88852 L 456.32483,523.38852 z "
           style="fill:#002a7b;fill-opacity:1" />
        <path
           id="path3876"
           d="M 466.57483,523.38852 L 467.26233,629.70102 L 462.9322,632.20102 L 462.2447,525.88852 L 466.57483,523.38852 z "
           style="fill:#002a7b;fill-opacity:1" />
        <path
           id="path3878"
           d="M 467.26233,629.70102 L 456.32483,629.70102 L 451.9947,632.20102 L 462.9322,632.20102 L 467.26233,629.70102 z "
           style="fill:#002a7b;fill-opacity:1" />
        <path
           id="path3880"
           d="M 456.32483,629.70102 L 447.44983,629.70102 L 443.1197,632.20102 L 451.9947,632.20102 L 456.32483,629.70102 z "
           style="fill:#002a7b;fill-opacity:1" />
        <path
           id="path3882"
           d="M 447.44983,629.70102 L 447.44983,647.41977 L 443.1197,649.91977 L 443.1197,632.20102 L 447.44983,629.70102 z "
           style="fill:#002a7b;fill-opacity:1" />
        <path
           id="path3884"
           d="M 447.44983,647.41977 L 456.32483,647.41977 L 451.9947,649.91977 L 443.1197,649.91977 L 447.44983,647.41977 z "
           style="fill:#002a7b;fill-opacity:1" />
        <path
           id="path3886"
           d="M 456.32483,647.41977 L 467.38733,647.41977 L 463.0572,649.91977 L 451.9947,649.91977 L 456.32483,647.41977 z "
           style="fill:#002a7b;fill-opacity:1" />
        <path
           id="path3888"
           d="M 467.38733,647.41977 L 467.38733,647.48227 L 463.0572,649.98227 L 463.0572,649.91977 L 467.38733,647.41977 z "
           style="fill:#002a7b;fill-opacity:1" />
        <path
           id="path3890"
           d="M 467.38733,647.48227 L 476.23107,647.41977 L 471.90094,649.91977 L 463.0572,649.98227 L 467.38733,647.48227 z "
           style="fill:#002a7b;fill-opacity:1" />
        <path
           id="path3892"
           d="M 476.23107,647.41977 L 495.26232,647.41977 L 490.93219,649.91977 L 471.90094,649.91977 L 476.23107,647.41977 z "
           style="fill:#002a7b;fill-opacity:1" />
        <path
           id="path3894"
           d="M 495.26232,647.41977 L 504.10607,647.41977 L 499.77594,649.91977 L 490.93219,649.91977 L 495.26232,647.41977 z "
           style="fill:#002a7b;fill-opacity:1" />
        <path
           id="path3896"
           d="M 504.10607,647.41977 L 504.10607,629.70102 L 499.77594,632.20102 L 499.77594,649.91977 L 504.10607,647.41977 z "
           style="fill:#002a7b;fill-opacity:1" />
        <path
           id="path3898"
           d="M 504.10607,629.70102 L 495.26232,629.70102 L 490.93219,632.20102 L 499.77594,632.20102 L 504.10607,629.70102 z "
           style="fill:#002a7b;fill-opacity:1" />
        <path
           id="path3900"
           d="M 495.26232,629.70102 L 484.98107,629.70102 L 480.65094,632.20102 L 490.93219,632.20102 L 495.26232,629.70102 z "
           style="fill:#002a7b;fill-opacity:1" />
        <path
           id="path3902"
           d="M 484.98107,629.70102 L 484.29357,523.38852 L 479.96344,525.88852 L 480.65094,632.20102 L 484.98107,629.70102 z "
           style="fill:#002a7b;fill-opacity:1" />
        <path
           id="path3904"
           d="M 484.29357,523.38852 L 495.26232,523.38852 L 490.93219,525.88852 L 479.96344,525.88852 L 484.29357,523.38852 z "
           style="fill:#002a7b;fill-opacity:1" />
        <path
           id="path3906"
           d="M 495.26232,523.38852 L 504.10607,523.38852 L 499.77594,525.88852 L 490.93219,525.88852 L 495.26232,523.38852 z "
           style="fill:#002a7b;fill-opacity:1" />
        <path
           id="path3908"
           d="M 504.10607,523.38852 L 504.10607,505.66977 L 499.77594,508.16977 L 499.77594,525.88852 L 504.10607,523.38852 z "
           style="fill:#002a7b;fill-opacity:1" />
        <path
           id="path3910"
           d="M 504.10607,505.66977 L 495.26232,505.66977 L 490.93219,508.16977 L 499.77594,508.16977 L 504.10607,505.66977 z "
           style="fill:#002a7b;fill-opacity:1" />
        <path
           id="path3912"
           d="M 495.26232,505.66977 L 484.16857,505.66977 L 479.83844,508.16977 L 490.93219,508.16977 L 495.26232,505.66977 z "
           style="fill:#002a7b;fill-opacity:1" />
        <path
           id="path3914"
           d="M 484.16857,505.66977 L 484.16857,505.60727 L 479.83844,508.10727 L 479.83844,508.16977 L 484.16857,505.66977 z "
           style="fill:#002a7b;fill-opacity:1" />
      </g>
      <path
         style="fill:#002a7b;fill-opacity:1;fill-rule:evenodd;stroke:none;stroke-width:17.71653366;stroke-linecap:square;stroke-linejoin:miter;stroke-miterlimit:4;stroke-dasharray:none;stroke-opacity:1"
         d="M 484.16857,505.60727 L 475.29357,505.66977 L 456.32483,505.66977 L 447.44983,505.66977 L 447.44983,523.38852 L 456.32483,523.38852 L 466.57483,523.38852 L 467.26233,629.70102 L 456.32483,629.70102 L 447.44983,629.70102 L 447.44983,647.41977 L 456.32483,647.41977 L 467.38733,647.41977 L 467.38733,647.48227 L 476.23107,647.41977 L 495.26232,647.41977 L 504.10607,647.41977 L 504.10607,629.70102 L 495.26232,629.70102 L 484.98107,629.70102 L 484.29357,523.38852 L 495.26232,523.38852 L 504.10607,523.38852 L 504.10607,505.66977 L 495.26232,505.66977 L 484.16857,505.66977 L 484.16857,505.60727 z "
         id="path3772" />
    </g>
    <path
       style="fill:url(#linearGradient2231);fill-opacity:1;fill-rule:evenodd;stroke:none;stroke-width:17.71653366;stroke-linecap:square;stroke-linejoin:miter;stroke-miterlimit:4;stroke-dasharray:none;stroke-opacity:1"
       d="M 17.436347,0.0086280274 L 15.891066,0.022461845 L 12.588299,0.022461845 L 11.043017,0.022461845 L 11.043017,3.9443263 L 12.588299,3.9443263 L 14.37299,3.9443263 L 14.492696,27.475513 L 12.588299,27.475513 L 11.043017,27.475513 L 11.043017,31.397378 L 12.588299,31.397378 L 14.51446,31.397378 L 14.51446,31.411211 L 16.054299,31.397378 L 19.367949,31.397378 L 20.90779,31.397378 L 20.90779,27.475513 L 19.367949,27.475513 L 17.577817,27.475513 L 17.458112,3.9443263 L 19.367949,3.9443263 L 20.90779,3.9443263 L 20.90779,0.022461845 L 19.367949,0.022461845 L 17.436347,0.022461845 L 17.436347,0.0086280274 z "
       id="path3388" />
    <path
       style="fill:url(#radialGradient3158);fill-opacity:1;fill-rule:evenodd;stroke:#ffffff;stroke-width:0;stroke-linecap:butt;stroke-linejoin:miter;stroke-miterlimit:4;stroke-dasharray:none;stroke-opacity:1"
       sodipodi:cx="556.84662"
       sodipodi:cy="645.09955"
       sodipodi:type="arc"
       transform="matrix(0.5605385,0,0,0.5605385,-296.08766,-345.93418)"
       d="M 565.3319 645.09955 A 8.485281 8.485281 0 1 1  548.36134,645.09955 A 8.485281 8.485281 0 1 1  565.3319 645.09955 z"
       sodipodi:rx="8.485281"
       id="path3285"
       sodipodi:ry="8.485281" />
  </g>
</svg>
