/* XPM */
static char * unlock_xpm[] = {
"22 22 4 1",
" 	c None",
".	c #4D4D4D",
"+	c #4E4E4E",
"@	c #4C4C4C",
"                      ",
"                      ",
"                      ",
"         ....         ",
"        .+  ..        ",
"       ..    @.       ",
"       .      .       ",
"       .      .       ",
"              .       ",
"              .       ",
"              .       ",
"     ............     ",
"     .          .     ",
"     .          .     ",
"     .          .     ",
"     .          .     ",
"     .          .     ",
"     .          .     ",
"     ............     ",
"                      ",
"                      ",
"                      "};
