/* XPM */
static const char * ceilGrid_xpm[] = {
"20 19 24 1",
" 	c None",
".	c #4D4D4D",
"+	c #4D4D4D",
"@	c #4D4D4D",
"#	c #4D4D4D",
"$	c #4D4D4D",
"%	c #4D4D4D",
"&	c #4D4D4D",
"*	c #4D4D4D",
"=	c #4D4D4D",
"-	c #4D4D4D",
";	c #4D4D4D",
">	c #4D4D4D",
",	c #4D4D4D",
"'	c #4D4D4D",
")	c #4D4D4D",
"!	c #4D4D4D",
"~	c #4D4D4D",
"{	c #4D4D4D",
"]	c #4D4D4D",
"^	c #4D4D4D",
"/	c #4D4D4D",
"(	c #4D4D4D",
"_	c #4D4D4D",
"    ..+.@.#.@.#.#.$.",
"   .%&..*  =.-   ..;",
"  ...............>  ",
" .,  '.   ..   ..  )",
"..  !~   >*   .,    ",
".{.#.{.#.].#.^.    )",
"/             (     ",
"     _             )",
")             )     ",
"     _             )",
")             )     ",
"     _             )",
")             )     ",
"     _ _ _ _ _ _ _ )",
")             )     ",
"   _             )  ",
")             )     ",
" _             )    ",
") ) ) ) ) ) ) )     "};
