/* XPM */
static const char * reset_rotation_xpm[] = {
"15 15 2 1",
" 	c None",
".	c #4D4D4D",
"     ..        ",
"     ..        ",
"     ..        ",
"     .......   ",
"    .     ..   ",
"   .     . .   ",
"  .......  .   ",
"  .     .  .   ",
"  .     .  .   ",
"  .     .  ....",
"  .     . .....",
"  .     ..     ",
" ........      ",
"...            ",
"..             "};
