/* XPM */
static const char * fit_frame_xpm[] = {
"12 12 2 1",
" 	c None",
".	c #4D4D4D",
"....    ....",
"...      ...",
"....    ....",
". ........ .",
"   .    .   ",
"   .    .   ",
"   .    .   ",
"   .    .   ",
". ........ .",
"....    ....",
"...      ...",
"....    ...."};
