/* XPM */
static const char * backGrid_xpm[] = {
"20 19 31 1",
" 	c None",
".	c #4D4D4D",
"+	c #4D4D4D",
"@	c #4D4D4D",
"#	c #4D4D4D",
"$	c #4D4D4D",
"%	c #4D4D4D",
"&	c #4D4D4D",
"*	c #4D4D4D",
"=	c #4D4D4D",
"-	c #4D4D4D",
";	c #4D4D4D",
">	c #4D4D4D",
",	c #4D4D4D",
"'	c #4D4D4D",
")	c #4D4D4D",
"!	c #4D4D4D",
"~	c #4D4D4D",
"{	c #4D4D4D",
"]	c #4D4D4D",
"^	c #4D4D4D",
"/	c #4D4D4D",
"(	c #4D4D4D",
"_	c #4D4D4D",
":	c #4D4D4D",
"<	c #4D4D4D",
"[	c #4D4D4D",
"}	c #4D4D4D",
"|	c #4D4D4D",
"1	c #4D4D4D",
"2	c #4D4D4D",
"     .+.@.#.@.@.@.@.",
"    $%    .    .   &",
"     .    .    . * .",
"  *  =    .    .   &",
"     -;>;-.;;>.-,-;.",
" ' ) , ! ~.~ ! {   &",
")    .    .   $-   .",
"     %    .    ]   &",
")    .    .   ^-   .",
"     /.......,....;(",
")    .    .   _-   .",
"     %    .    ]   &",
")    .    .   ^-   .",
"     :.<.[.[.}.|.}.1",
")             !     ",
"   2             )  ",
")             )     ",
" 2             )    ",
") ) ) ) ) ) ) )     "};
