/* XPM */
static const char * free_axes_xpm[] = {
"17 18 3 1",
" 	c None",
".	c #4D4D4D",
"+	c #4D4D4D",
".                ",
"+                ",
".                ",
"+                ",
".                ",
"+                ",
".                ",
"+                ",
".                ",
"+                ",
".                ",
"+               +",
".              + ",
" .+           +  ",
"   +.        +   ",
"     .+     +    ",
"       +.  +     ",
"         .+      "};
