/* XPM */
static const char * plot_bars_xpm[] = {
"32 32 99 2",
"  	c None",
". 	c #4D4D4D",
"+ 	c #1D99F3",
"@ 	c #1D99F3",
"# 	c #1D99F3",
"$ 	c #1D99F3",
"% 	c #1D99F3",
"& 	c #1D99F3",
"* 	c #1D99F3",
"= 	c #1D99F3",
"- 	c #1D99F3",
"; 	c #1D99F3",
"> 	c #1D99F3",
", 	c #1D99F3",
"' 	c #1D99F3",
") 	c #1D99F3",
"! 	c #1D99F3",
"~ 	c #1D99F3",
"{ 	c #1D99F3",
"] 	c #1D99F3",
"^ 	c #1D99F3",
"/ 	c #1D99F3",
"( 	c #1D99F3",
"_ 	c #1D99F3",
": 	c #1D99F3",
"< 	c #1D99F3",
"[ 	c #1D99F3",
"} 	c #1D99F3",
"| 	c #1D99F3",
"1 	c #1D99F3",
"2 	c #1D99F3",
"3 	c #1D99F3",
"4 	c #1D99F3",
"5 	c #1D99F3",
"6 	c #1D99F3",
"7 	c #1D99F3",
"8 	c #1D99F3",
"9 	c #1D99F3",
"0 	c #1D99F3",
"a 	c #1D99F3",
"b 	c #1D99F3",
"c 	c #1D99F3",
"d 	c #1D99F3",
"e 	c #1D99F3",
"f 	c #1D99F3",
"g 	c #1D99F3",
"h 	c #1D99F3",
"i 	c #1D99F3",
"j 	c #1D99F3",
"k 	c #1D99F3",
"l 	c #1D99F3",
"m 	c #1D99F3",
"n 	c #1D99F3",
"o 	c #1D99F3",
"p 	c #1D99F3",
"q 	c #1D99F3",
"r 	c #1D99F3",
"s 	c #1D99F3",
"t 	c #1D99F3",
"u 	c #1D99F3",
"v 	c #1D99F3",
"w 	c #1D99F3",
"x 	c #1D99F3",
"y 	c #1D99F3",
"z 	c #1D99F3",
"A 	c #1D99F3",
"B 	c #1D99F3",
"C 	c #1D99F3",
"D 	c #1D99F3",
"E 	c #1D99F3",
"F 	c #1D99F3",
"G 	c #1D99F3",
"H 	c #1D99F3",
"I 	c #1D99F3",
"J 	c #1D99F3",
"K 	c #1D99F3",
"L 	c #1D99F3",
"M 	c #1D99F3",
"N 	c #1D99F3",
"O 	c #1D99F3",
"P 	c #1D99F3",
"Q 	c #1D99F3",
"R 	c #1D99F3",
"S 	c #1D99F3",
"T 	c #1D99F3",
"U 	c #1D99F3",
"V 	c #1D99F3",
"W 	c #1D99F3",
"X 	c #1D99F3",
"Y 	c #1D99F3",
"Z 	c #1D99F3",
"` 	c #1D99F3",
" .	c #1D99F3",
"..	c #1D99F3",
"+.	c #1D99F3",

"@.	c #1D99F3",
"#.	c #1D99F3",
"$.	c #1D99F3",
"%.	c #1D99F3",
"                                                                ",
"                                                                ",
"                                                                ",
"                                    . . .                       ",
"                                . . + + + . .                   ",
"                              . @ # $ + % & * .                 ",
"                              . . . = - ; . . .                 ",
"                              . + + . . . + + .                 ",
"                              . > + , . ' + ) .                 ",
"                              . @ + * . ! + ~ .                 ",
"                              . { ] ^ . $ + % .                 ",
"                            . . . - / . ) + ( .                 ",
"                        . . _ _ _ . . . : + < .                 ",
"                      . [ } | _ 1 2 3 . # + & .                 ",
"                      . . . 4 5 6 . . . 7 + 8 .                 ",
"                      . _ _ . . . _ _ . 9 + 0 .                 ",
"                      . [ _ 3 . a _ b . @ + * .                 ",
"                      . [ _ 3 . | _ 1 . c > d .                 ",
"                    . . . 5 e . f _ g . h i j .                 ",
"                . . k k k . . . } _ 2 . l m n .                 ",
"              . o p q k r s t . u _ v . w < x .                 ",
"              . . . y z A . . . [ _ 3 . m B C .                 ",
"              . k k . . . k k . D E F . ( G H .                 ",
"              . q k r . q k r . I J K . L M N .                 ",
"              . p k s . p k s . O P Q . R S T .                 ",
"              . o k t . o k t . U v V . W . .                   ",
"              . X Y Z . o k t . g `  .. .                       ",
"              . ..+.@.. X Y Z . #.. .                           ",
"              . . z $.. ..+.@.. .                               ",
"                  . . . %.. .                                   ",
"                      . .                                       ",
"                                                                "};
