/* XPM */
static const char * frontGrid_xpm[] = {
"20 19 22 1",
" 	c None",
".	c #4D4D4D",
"+	c #4D4D4D",
"@	c #4D4D4D",
"#	c #4D4D4D",
"$	c #4D4D4D",
"%	c #4D4D4D",
"&	c #4D4D4D",
"*	c #4D4D4D",
"=	c #4D4D4D",
"-	c #4D4D4D",
";	c #4D4D4D",
">	c #4D4D4D",
",	c #4D4D4D",
"'	c #4D4D4D",
")	c #4D4D4D",
"!	c #4D4D4D",
"~	c #4D4D4D",
"{	c #4D4D4D",
"]	c #4D4D4D",
"^	c #4D4D4D",
"/	c #4D4D4D",
"      . . . . . . + ",
"    @#             $",
"                 @  ",
"  @  #             .",
"               @    ",
"%&%*%*%*%*%*%*%    .",
"=   %     %   =     ",
"%   %-    %   %    .",
"=   %     %   =     ",
"%;%%%>%%%%%%%;%    .",
"=   %     %   =     ",
"%   %-    %   %    .",
"=   %     %   =     ",
"%   %, - ,%' ,%- # .",
"))%%%%%%%%%%%))     ",
"%  !%     %   %  .  ",
"=   %     %   =     ",
"%,  ~     %  {%]    ",
"^%*%/%*%*%/%*%^     "};
