<?xml version="1.0" encoding="utf-8"?>
<!-- Generator: Adobe Illustrator 17.0.0, SVG Export Plug-In . SVG Version: 6.00 Build 0)  -->
<!DOCTYPE svg PUBLIC "-//W3C//DTD SVG 1.1//EN" "http://www.w3.org/Graphics/SVG/1.1/DTD/svg11.dtd">
<svg version="1.1" id="Layer_1" xmlns="http://www.w3.org/2000/svg" xmlns:xlink="http://www.w3.org/1999/xlink" x="0px" y="0px"
	 width="16px" height="16px" viewBox="0 0 16 16" enable-background="new 0 0 16 16" xml:space="preserve">
<g id="g3" enable-background="new    ">
	<path id="path5" fill="#4D4D4D" d="M5.285,2.6H5.27L4.261,3.048l-0.03-0.889l1.424-0.622h0.921l-0.96,5.117H4.521L5.285,2.6z"/>
</g>
<g id="g7" enable-background="new    ">
	<path id="path9" fill="#4D4D4D" d="M7.766,13.99L7.9,13.259l1.102-0.851c1.023-0.834,1.684-1.433,1.684-2.047
		c0-0.362-0.252-0.622-0.709-0.622c-0.456,0-0.811,0.134-1.078,0.299L8.67,9.228c0.409-0.252,0.999-0.441,1.582-0.441
		c1.039,0,1.598,0.607,1.598,1.394c0,1.047-0.834,1.771-1.739,2.464l-0.504,0.362v0.015h1.835l-0.181,0.969L7.766,13.99L7.766,13.99
		z"/>
</g>
<rect x="6.836" y="4.806" transform="matrix(-0.7071 -0.7071 0.7071 -0.7071 6.6522 19.3593)" fill="#4D4D4D" width="1" height="6.992"/>
</svg>
