<?xml version="1.0" encoding="utf-8"?>
<!-- Generator: Adobe Illustrator 17.0.0, SVG Export Plug-In . SVG Version: 6.00 Build 0)  -->
<!DOCTYPE svg PUBLIC "-//W3C//DTD SVG 1.1//EN" "http://www.w3.org/Graphics/SVG/1.1/DTD/svg11.dtd">
<svg version="1.1"
	 id="Layer_1" xmlns:dc="http://purl.org/dc/elements/1.1/" xmlns:cc="http://creativecommons.org/ns#" xmlns:rdf="http://www.w3.org/1999/02/22-rdf-syntax-ns#" xmlns:svg="http://www.w3.org/2000/svg" xmlns:sodipodi="http://sodipodi.sourceforge.net/DTD/sodipodi-0.dtd" xmlns:inkscape="http://www.inkscape.org/namespaces/inkscape" sodipodi:docname="text-type16.svg" inkscape:version="0.91 r13725"
	 xmlns="http://www.w3.org/2000/svg" xmlns:xlink="http://www.w3.org/1999/xlink" x="0px" y="0px" width="16px" height="16px"
	 viewBox="0 0 16 16" enable-background="new 0 0 16 16" xml:space="preserve">
<sodipodi:namedview  inkscape:cy="8" inkscape:cx="8.1955174" inkscape:zoom="33.245117" showgrid="false" objecttolerance="10" bordercolor="#666666" gridtolerance="10" guidetolerance="10" id="namedview19" borderopacity="1" pagecolor="#ffffff" inkscape:current-layer="Layer_1" inkscape:window-maximized="1" inkscape:window-y="0" inkscape:window-x="0" inkscape:window-height="773" inkscape:pageshadow="2" inkscape:pageopacity="0" inkscape:window-width="1280">
	</sodipodi:namedview>
<g id="text3" transform="translate(-0.6015921,0.03007961)" enable-background="new    ">
	<path id="path5" inkscape:connector-curvature="0" fill="#4D4D4D" d="M4.008,12.43c0.008-0.393,0.042-0.922,0.075-1.491H4.059
		c-0.402,1.22-0.937,1.641-1.456,1.641c-0.728,0-1.205-0.922-1.205-2.251c0-2.251,0.971-4.65,2.871-4.65
		c0.443,0,0.92,0.135,1.23,0.298L5.08,9.42c-0.117,0.99-0.184,2.223-0.167,3.01C4.913,12.43,4.008,12.43,4.008,12.43z M4.41,6.968
		C4.309,6.927,4.184,6.9,4.008,6.9c-0.904,0-1.599,1.64-1.599,3.145c0,0.691,0.159,1.261,0.585,1.261
		c0.452,0,1.004-0.922,1.197-2.602L4.41,6.968z"/>
	<path id="path7" inkscape:connector-curvature="0" fill="#4D4D4D" d="M8.895,2.806l-0.51,3.999h0.017
		C8.728,6.086,9.214,5.68,9.741,5.68c0.871,0,1.231,1.152,1.231,2.332c0,2.088-0.887,4.568-2.629,4.568
		c-0.853,0-1.364-0.583-1.356-1.776c0-0.38,0.033-0.773,0.075-1.139l0.854-6.859L8.895,2.806C8.895,2.806,8.895,2.806,8.895,2.806z
		 M8.033,9.746c-0.025,0.231-0.05,0.475-0.042,0.786c0,0.542,0.193,0.84,0.544,0.84c0.853,0,1.415-1.775,1.415-3.064
		c0-0.732-0.192-1.342-0.644-1.342c-0.502,0-1.022,0.841-1.189,2.168C8.117,9.134,8.033,9.746,8.033,9.746z"/>
	<path id="path9" inkscape:connector-curvature="0" fill="#4D4D4D" d="M15.397,12.113c-0.234,0.189-0.653,0.366-1.172,0.366
		c-1.021,0-1.648-1.058-1.648-2.63c0-2.304,1.08-4.256,2.595-4.256c0.36,0,0.678,0.149,0.829,0.258L15.75,7.085
		c-0.151-0.108-0.343-0.204-0.611-0.204c-0.946,0-1.54,1.41-1.54,2.778c0,0.99,0.352,1.546,0.895,1.546
		c0.377,0,0.662-0.163,0.871-0.312C15.365,10.893,15.397,12.113,15.397,12.113z"/>
</g>
<g id="g7">
</g>
<g id="g9">
</g>
<g id="g11">
</g>
<g id="g13">
</g>
<g id="g15">
</g>
<g id="g17">
</g>
</svg>
