<?xml version="1.0" encoding="UTF-8" standalone="no"?>
<!-- Created with Inkscape (http://www.inkscape.org/) -->

<svg
   xmlns:dc="http://purl.org/dc/elements/1.1/"
   xmlns:cc="http://creativecommons.org/ns#"
   xmlns:rdf="http://www.w3.org/1999/02/22-rdf-syntax-ns#"
   xmlns:svg="http://www.w3.org/2000/svg"
   xmlns="http://www.w3.org/2000/svg"
   xmlns:sodipodi="http://sodipodi.sourceforge.net/DTD/sodipodi-0.dtd"
   xmlns:inkscape="http://www.inkscape.org/namespaces/inkscape"
   width="22"
   height="22"
   id="svg3404"
   version="1.1"
   inkscape:version="0.91 r13725"
   sodipodi:docname="edit-print.svg">
  <defs
     id="defs3406" />
  <sodipodi:namedview
     id="base"
     pagecolor="#ffffff"
     bordercolor="#666666"
     borderopacity="1.0"
     inkscape:pageopacity="0.0"
     inkscape:pageshadow="2"
     inkscape:zoom="57.064809"
     inkscape:cx="8.6106178"
     inkscape:cy="11"
     inkscape:document-units="px"
     inkscape:current-layer="layer1"
     showgrid="true"
     fit-margin-top="0"
     fit-margin-left="0"
     fit-margin-right="0"
     fit-margin-bottom="0"
     inkscape:window-width="1280"
     inkscape:window-height="773"
     inkscape:window-x="0"
     inkscape:window-y="0"
     inkscape:window-maximized="1"
     inkscape:showpageshadow="false">
    <inkscape:grid
       type="xygrid"
       id="grid4117"
       originx="0.99998835px"
       originy="1.0000143px" />
    <sodipodi:guide
       position="3,21"
       orientation="18,0"
       id="guide4123" />
    <sodipodi:guide
       position="3,3"
       orientation="0,18"
       id="guide4125" />
    <sodipodi:guide
       position="21,3"
       orientation="-18,0"
       id="guide4127" />
    <sodipodi:guide
       position="21,21"
       orientation="0,-18"
       id="guide4129" />
    <sodipodi:guide
       position="4,20"
       orientation="16,0"
       id="guide4131" />
    <sodipodi:guide
       position="4,4"
       orientation="0,16"
       id="guide4133" />
    <sodipodi:guide
       position="20,4"
       orientation="-16,0"
       id="guide4135" />
    <sodipodi:guide
       position="20,20"
       orientation="0,-16"
       id="guide4137" />
  </sodipodi:namedview>
  <metadata
     id="metadata3409">
    <rdf:RDF>
      <cc:Work
         rdf:about="">
        <dc:format>image/svg+xml</dc:format>
        <dc:type
           rdf:resource="http://purl.org/dc/dcmitype/StillImage" />
        <dc:title />
      </cc:Work>
    </rdf:RDF>
  </metadata>
  <g
     inkscape:label="Capa 1"
     inkscape:groupmode="layer"
     id="layer1"
     transform="translate(-383.57144,-481.93362)">
    <path
       style="opacity:1;fill:#f2f2f2;fill-opacity:1;stroke:none"
       d="m 389.61093,485.02517 0,1 0,4 -2,0 0,1 0,7 1,0 3,0 0,2 0,1 8,0 0,-1 0,-2 4,0 0,-1 0,-6 0,-1 -2,0 0,-4 0,-1 -12,0 z m 1,1 10,0 0,4 -1,0 0,-1 -8,0 0,1 -1,0 0,-4 z m 1,1 0,1 8,0 0,-1 -8,0 z m -3,4 14,0 0,6 -2,0 0,-2 -10,0 0,2 -2,0 0,-6 z m 10,1 0,1 3,0 0,-1 -3,0 z m -6,6 6,0 0,2 -6,0 0,-2 z"
       id="rect4145"
       inkscape:connector-curvature="0" />
  </g>
</svg>
