<?xml version="1.0" encoding="UTF-8" standalone="no"?>
<!-- Created with Inkscape (http://www.inkscape.org/) -->

<svg
   xmlns:dc="http://purl.org/dc/elements/1.1/"
   xmlns:cc="http://creativecommons.org/ns#"
   xmlns:rdf="http://www.w3.org/1999/02/22-rdf-syntax-ns#"
   xmlns:svg="http://www.w3.org/2000/svg"
   xmlns="http://www.w3.org/2000/svg"
   xmlns:sodipodi="http://sodipodi.sourceforge.net/DTD/sodipodi-0.dtd"
   xmlns:inkscape="http://www.inkscape.org/namespaces/inkscape"
   width="22"
   height="22"
   id="svg3815"
   version="1.1"
   inkscape:version="0.91 r13725"
   sodipodi:docname="edit-cut.svg"
   viewBox="0 0 22 22">
  <title
     id="title4252">I hate this icon</title>
  <defs
     id="defs3817" />
  <sodipodi:namedview
     id="base"
     pagecolor="#ffffff"
     bordercolor="#666666"
     borderopacity="1.0"
     inkscape:pageopacity="0.0"
     inkscape:pageshadow="2"
     inkscape:zoom="36.0625"
     inkscape:cx="23.800289"
     inkscape:cy="16.295447"
     inkscape:document-units="px"
     inkscape:current-layer="svg3815"
     showgrid="true"
     fit-margin-top="0"
     fit-margin-left="0"
     fit-margin-right="0"
     fit-margin-bottom="0"
     inkscape:window-width="1280"
     inkscape:window-height="773"
     inkscape:window-x="0"
     inkscape:window-y="0"
     inkscape:window-maximized="1"
     showguides="true"
     inkscape:showpageshadow="false">
    <inkscape:grid
       type="xygrid"
       id="grid4174" />
    <sodipodi:guide
       position="2.0000044,19.999979"
       orientation="18,0"
       id="guide4262" />
    <sodipodi:guide
       position="2.0000044,1.9999785"
       orientation="0,18"
       id="guide4264" />
    <sodipodi:guide
       position="20.000004,1.9999785"
       orientation="-18,0"
       id="guide4266" />
    <sodipodi:guide
       position="20.000004,19.999979"
       orientation="0,-18"
       id="guide4268" />
    <sodipodi:guide
       position="3.0000044,18.999979"
       orientation="16,0"
       id="guide4270" />
    <sodipodi:guide
       position="3.0000044,2.9999785"
       orientation="0,16"
       id="guide4272" />
    <sodipodi:guide
       position="19.000004,2.9999785"
       orientation="-16,0"
       id="guide4274" />
    <sodipodi:guide
       position="19.000004,18.999979"
       orientation="0,-16"
       id="guide4276" />
  </sodipodi:namedview>
  <metadata
     id="metadata3820">
    <rdf:RDF>
      <cc:Work
         rdf:about="">
        <dc:format>image/svg+xml</dc:format>
        <dc:type
           rdf:resource="http://purl.org/dc/dcmitype/StillImage" />
        <dc:title>I hate this icon</dc:title>
        <dc:date>October 19th 2014</dc:date>
        <dc:creator>
          <cc:Agent>
            <dc:title>Uri Herrera</dc:title>
          </cc:Agent>
        </dc:creator>
        <dc:rights>
          <cc:Agent>
            <dc:title />
          </cc:Agent>
        </dc:rights>
        <dc:language>English</dc:language>
        <dc:description>An icon I absolutely don't like, and that represents exactly the kind of things why I choose CC licenses.</dc:description>
        <dc:contributor>
          <cc:Agent>
            <dc:title>Everyone</dc:title>
          </cc:Agent>
        </dc:contributor>
        <cc:license
           rdf:resource="" />
      </cc:Work>
    </rdf:RDF>
  </metadata>
  <path
     inkscape:connector-curvature="0"
     id="HATE_THIS"
     d="M 7.0117188,3 C 6.4343687,4 6.1335875,4 6.7109375,5 l 3.5410155,6.140625 -2.0585936,3.527344 C 7.7481026,14.256516 7.1568615,14 6.5,14 5.115,14 4,15.115 4,16.5 4,17.885 5.115,19 6.5,19 7.885,19 9,17.885 9,16.5 9,16.332897 8.9821496,16.169477 8.9511719,16.011719 l 1.1621091,-2.013672 c 0.780419,-0.01 0.878798,-0.774603 1.333985,-0.785156 l 1.603515,2.78125 C 13.017588,16.157178 13,16.326875 13,16.5 13,17.885 14.115,19 15.5,19 16.885,19 18,17.885 18,16.5 18,15.115 16.885,14 15.5,14 c -0.653333,0 -1.241072,0.254586 -1.685547,0.662109 L 11.759766,11.140625 15.300781,5 C 15.878131,4 15.57735,4 15,3 L 11.005859,9.8476562 7.0117188,3 Z M 11,11 c 0.277,0 0.5,0.223 0.5,0.5 0,0.277 -0.223,0.5 -0.5,0.5 -0.277,0 -0.5,-0.223 -0.5,-0.5 0,-0.277 0.223,-0.5 0.5,-0.5 z M 6.5,15 C 7.331,15 8,15.669 8,16.5 8,17.331 7.331,18 6.5,18 5.669,18 5,17.331 5,16.5 5,15.669 5.669,15 6.5,15 Z m 9,0 C 16.331,15 17,15.669 17,16.5 17,17.331 16.331,18 15.5,18 14.669,18 14,17.331 14,16.5 14,15.669 14.669,15 15.5,15 Z"
     style="color:#000000;text-decoration:none;text-decoration-line:none;text-decoration-style:solid;text-decoration-color:#000000;white-space:normal;clip-rule:nonzero;display:inline;overflow:visible;visibility:visible;opacity:1;isolation:auto;mix-blend-mode:normal;color-interpolation:sRGB;color-interpolation-filters:linearRGB;solid-color:#000000;solid-opacity:1;fill:#f2f2f2;fill-opacity:1;fill-rule:nonzero;stroke:none;stroke-width:1;stroke-linecap:butt;stroke-linejoin:miter;stroke-miterlimit:4;stroke-dasharray:none;stroke-dashoffset:0;stroke-opacity:1;color-rendering:auto;image-rendering:auto;shape-rendering:auto;text-rendering:auto;enable-background:accumulate" />
</svg>
