<?xml version="1.0" encoding="utf-8"?>
<!-- Generator: Adobe Illustrator 17.0.0, SVG Export Plug-In . SVG Version: 6.00 Build 0)  -->
<!DOCTYPE svg PUBLIC "-//W3C//DTD SVG 1.1//EN" "http://www.w3.org/Graphics/SVG/1.1/DTD/svg11.dtd">
<svg version="1.1" id="Layer_1" xmlns="http://www.w3.org/2000/svg" xmlns:xlink="http://www.w3.org/1999/xlink" x="0px" y="0px"
	 width="22px" height="22px" viewBox="0 0 22 22" enable-background="new 0 0 22 22" xml:space="preserve">
<g id="g3" enable-background="new    ">
	<path id="path5" fill="#4D4D4D" d="M6.822,3.418H6.799l-1.45,0.645l-0.044-1.28l2.049-0.894h1.325L7.297,9.25H5.723L6.822,3.418z"
		/>
</g>
<g id="g7" enable-background="new    ">
	<path id="path9" fill="#4D4D4D" d="M10.39,19.801l0.193-1.053l1.585-1.224c1.472-1.2,2.423-2.061,2.423-2.944
		c0-0.521-0.363-0.894-1.02-0.894c-0.656,0-1.166,0.193-1.551,0.431l-0.329-1.166c0.588-0.363,1.437-0.634,2.275-0.634
		c1.495,0,2.299,0.872,2.299,2.004c0,1.506-1.2,2.547-2.502,3.544l-0.725,0.521v0.022h2.639l-0.261,1.394L10.39,19.801L10.39,19.801
		z"/>
</g>
<rect x="8.895" y="6.591" transform="matrix(-0.7068 -0.7074 0.7074 -0.7068 8.4575 26.743)" fill="#4D4D4D" width="1.751" height="10.056"/>
</svg>
