/* XPM */
static const char * perspective_xpm[] = {
"16 16 2 1",
" 	c None",
".	c #F2F2F2",
"    ........    ",
"   ..      ..   ",
"  . .      . .  ",
" .  .      .  . ",
"................",
".   .      .   .",
".   .      .   .",
".   .      .   .",
".   .      .   .",
".   .      .   .",
".   .      .   .",
".   ........   .",
".  .        .  .",
". .          . .",
"..            ..",
"................"};
