/* XPM */
static const char * leftGrid_xpm[] = {
"20 19 25 1",
" 	c None",
".	c #F2F2F2",
"+	c #F2F2F2",
"@	c #F2F2F2",
"#	c #F2F2F2",
"$	c #F2F2F2",
"%	c #F2F2F2",
"&	c #F2F2F2",
"*	c #F2F2F2",
"=	c #F2F2F2",
"-	c #F2F2F2",
";	c #F2F2F2",
">	c #F2F2F2",
",	c #F2F2F2",
"'	c #F2F2F2",
")	c #F2F2F2",
"!	c #F2F2F2",
"~	c #F2F2F2",
"{	c #F2F2F2",
"]	c #F2F2F2",
"^	c #F2F2F2",
"/	c #F2F2F2",
"(	c #F2F2F2",
"_	c #F2F2F2",
":	c #F2F2F2",
"      . . . . . . +@",
"    #$           @@%",
"                @&*@",
"  #  $         @@@ =",
"              @-;>,@",
" ' . . . . . )@! @>%",
".             ~ @@{@",
"     $        @=@@ =",
".             ]> @,@",
"     $        @  @>%",
".             ~ @@{@",
"     $        @=@@ =",
".             ]> @ @",
"     $ $ $ $ ^@/ (@_",
".             ~  @@ ",
"   $          @ @=  ",
".             ~@@   ",
" $            @=    ",
". . . . . . . :     "};
