/* XPM */
static const char * box_xpm[] = {
"20 19 7 1",
" 	c None",
".	c #F2F2F2",
"+	c #F2F2F2",
"@	c #F2F2F2",
"#	c #F2F2F2",
"$	c #F2F2F2",
"%	c #F2F2F2",
"     .+@+@+@+@+@+@#.",
"    @             @$",
"   @             @ @",
"  @             @  +",
" @             @   @",
"@%@+@+@+@+@+@+@    +",
"+             +    @",
"@             @    +",
"+             +    @",

"@             @    +",
"+             +    @",
"@             @    +",
"+             +    @",
"@             @    +",
"+             +   + ",
"@             @  +  ",
"+             + +   ",
"@             @+    ",
"+@+@+@+@+@+@+@+     "};
