/* XPM */
static const char * floorGrid_xpm[] = {
"20 19 30 1",
" 	c None",
".	c #F2F2F2",
"+	c #F2F2F2",
"@	c #F2F2F2",
"#	c #F2F2F2",
"$	c #F2F2F2",
"%	c #F2F2F2",
"&	c #F2F2F2",
"*	c #F2F2F2",
"=	c #F2F2F2",
"-	c #F2F2F2",
";	c #F2F2F2",
">	c #F2F2F2",
",	c #F2F2F2",
"'	c #F2F2F2",
")	c #F2F2F2",
"!	c #F2F2F2",
"~	c #F2F2F2",
"{	c #F2F2F2",
"]	c #F2F2F2",
"^	c #F2F2F2",
"/	c #F2F2F2",
"(	c #F2F2F2",
"_	c #F2F2F2",
":	c #F2F2F2",
"<	c #F2F2F2",
"[	c #F2F2F2",
"}	c #F2F2F2",
"|	c #F2F2F2",
"1	c #F2F2F2",
"      . . . . . . + ",
"    @#             $",
"                 @  ",
"  @  #             .",
"               @    ",
" % . . . . . .     .",
".             .     ",
"     #             .",
".             .     ",
"     #             .",
".             .     ",
"     #             .",
".             &     ",
"    *=*-*;*>*;*-*-*,",
".  **  **   *')  ** ",
"  *!*********~***{  ",
"]^*  **    ** /**   ",
"*(_ :~_   <[  *}    ",
",*|*1*|*|*1*|*,     "};
