<?xml version="1.0" encoding="utf-8"?>
<!-- Generator: Adobe Illustrator 17.0.0, SVG Export Plug-In . SVG Version: 6.00 Build 0)  -->
<!DOCTYPE svg PUBLIC "-//W3C//DTD SVG 1.1//EN" "http://www.w3.org/Graphics/SVG/1.1/DTD/svg11.dtd">
<svg version="1.1"
	 id="svg2" xmlns:rdf="http://www.w3.org/1999/02/22-rdf-syntax-ns#" xmlns:dc="http://purl.org/dc/elements/1.1/" xmlns:cc="http://creativecommons.org/ns#" xmlns:svg="http://www.w3.org/2000/svg" xmlns:sodipodi="http://sodipodi.sourceforge.net/DTD/sodipodi-0.dtd" xmlns:inkscape="http://www.inkscape.org/namespaces/inkscape" sodipodi:docname="template-save.svg" inkscape:version="0.91 r13725"
	 xmlns="http://www.w3.org/2000/svg" xmlns:xlink="http://www.w3.org/1999/xlink" x="0px" y="0px" width="22px" height="22px"
	 viewBox="0 0 22 22" enable-background="new 0 0 22 22" xml:space="preserve">
<title  id="title4152">I REALLY hate this icon</title>
<sodipodi:namedview  borderlayer="true" units="px" showgrid="true" bordercolor="#666666" inkscape:zoom="16.82" inkscape:cx="14.720469" inkscape:cy="7.9548483" borderopacity="1.0" pagecolor="#ffffff" id="base" inkscape:window-maximized="1" inkscape:window-y="0" inkscape:window-x="0" inkscape:current-layer="layer1" inkscape:document-units="px" inkscape:pageopacity="0.0" inkscape:window-width="1280" inkscape:window-height="773" inkscape:showpageshadow="false" inkscape:pageshadow="2">
	<sodipodi:guide  position="2,20.000017" orientation="18,0" id="guide4085"></sodipodi:guide>
	<sodipodi:guide  position="2,2.0000174" orientation="0,18" id="guide4087"></sodipodi:guide>
	<sodipodi:guide  position="20,2.0000174" orientation="-18,0" id="guide4089"></sodipodi:guide>
	<sodipodi:guide  position="20,20.000017" orientation="0,-18" id="guide4091"></sodipodi:guide>
	<sodipodi:guide  position="3,19.000017" orientation="16,0" id="guide4093"></sodipodi:guide>
	<sodipodi:guide  position="3,3.0000174" orientation="0,16" id="guide4095"></sodipodi:guide>
	<sodipodi:guide  position="19,3.0000174" orientation="-16,0" id="guide4097"></sodipodi:guide>
	<sodipodi:guide  position="19,19.000017" orientation="0,-16" id="guide4099"></sodipodi:guide>
	<inkscape:grid  type="xygrid" id="grid4101"></inkscape:grid>
</sodipodi:namedview>
<g id="layer1" transform="translate(0,-1030.3622)" inkscape:label="Capa 1" inkscape:groupmode="layer">
	<g id="layer1-7" transform="matrix(0.7108891,0,0,0.78025951,-0.21363152,225.51488)" inkscape:label="Capa 1">
		<path id="path16" inkscape:connector-curvature="0" fill="#F2F2F2" d="M26.012,1038.584l-4.528-4.528l-0.011,0.014v-0.014H4.012
			v22h4.209c-0.011-0.392,0.01-0.782,0.056-1.172c-0.067-0.066-0.131-0.135-0.195-0.203H5.387v-19.25h4.125v6.875h11v-6.875h0.403
			l3.722,3.722v6.233c0.197-0.015,0.395-0.029,0.602-0.029c0.267,0,0.524,0.014,0.774,0.038v-6.801h-0.011l0.01-0.014
			L26.012,1038.584z M16.25,1040.931h-5.363v-5.5h5.363V1040.931z"/>
	</g>
</g>
<g id="layer1_1_" transform="translate(-551.28571,-607.64789)" inkscape:label="Capa 1" inkscape:groupmode="layer">
	<path id="rect4112" inkscape:connector-curvature="0" fill="#F2F2F2" d="M556.719,618.198v9.589h14.602v-9.589H556.719z
		 M557.632,619.238h12.776v7.51h-12.776V619.238z"/>
</g>
</svg>
