<?xml version="1.0" encoding="UTF-8" standalone="no"?>
<!-- Generator: Adobe Illustrator 17.0.0, SVG Export Plug-In . SVG Version: 6.00 Build 0)  -->

<svg
   xmlns:dc="http://purl.org/dc/elements/1.1/"
   xmlns:cc="http://creativecommons.org/ns#"
   xmlns:rdf="http://www.w3.org/1999/02/22-rdf-syntax-ns#"
   xmlns:svg="http://www.w3.org/2000/svg"
   xmlns="http://www.w3.org/2000/svg"
   xmlns:sodipodi="http://sodipodi.sourceforge.net/DTD/sodipodi-0.dtd"
   xmlns:inkscape="http://www.inkscape.org/namespaces/inkscape"
   version="1.1"
   id="Layer_1"
   x="0px"
   y="0px"
   width="16px"
   height="16px"
   viewBox="0 0 16 16"
   enable-background="new 0 0 16 16"
   xml:space="preserve"
   inkscape:version="0.91 r13725"
   sodipodi:docname="text-type16.svg"><metadata
     id="metadata23"><rdf:RDF><cc:Work
         rdf:about=""><dc:format>image/svg+xml</dc:format><dc:type
           rdf:resource="http://purl.org/dc/dcmitype/StillImage" /></cc:Work></rdf:RDF></metadata><defs
     id="defs21" /><sodipodi:namedview
     pagecolor="#ffffff"
     bordercolor="#666666"
     borderopacity="1"
     objecttolerance="10"
     gridtolerance="10"
     guidetolerance="10"
     inkscape:pageopacity="0"
     inkscape:pageshadow="2"
     inkscape:window-width="1280"
     inkscape:window-height="773"
     id="namedview19"
     showgrid="false"
     inkscape:zoom="33.245117"
     inkscape:cx="8.1955174"
     inkscape:cy="8"
     inkscape:window-x="0"
     inkscape:window-y="0"
     inkscape:window-maximized="1"
     inkscape:current-layer="Layer_1" /><g
     id="text3"
     enable-background="new    "
     transform="translate(-0.6015921,0.03007961)"><path
       id="path5"
       d="M 4.008,12.43 C 4.016,12.037 4.05,11.508 4.083,10.939 l -0.024,0 c -0.402,1.22 -0.937,1.641 -1.456,1.641 -0.728,0 -1.205,-0.922 -1.205,-2.251 0,-2.251 0.971,-4.65 2.871,-4.65 0.443,0 0.92,0.135 1.23,0.298 L 5.08,9.42 c -0.117,0.99 -0.184,2.223 -0.167,3.01 l -0.905,0 z M 4.41,6.968 C 4.309,6.927 4.184,6.9 4.008,6.9 c -0.904,0 -1.599,1.64 -1.599,3.145 0,0.691 0.159,1.261 0.585,1.261 0.452,0 1.004,-0.922 1.197,-2.602 L 4.41,6.968 Z"
       inkscape:connector-curvature="0"
       style="fill:#f2f2f2" /><path
       id="path7"
       d="m 8.895,2.806 -0.51,3.999 0.017,0 C 8.728,6.086 9.214,5.68 9.741,5.68 c 0.871,0 1.231,1.152 1.231,2.332 0,2.088 -0.887,4.568 -2.629,4.568 -0.853,0 -1.364,-0.583 -1.356,-1.776 0,-0.38 0.033,-0.773 0.075,-1.139 l 0.854,-6.859 0.979,0 0,0 z m -0.862,6.94 c -0.025,0.231 -0.05,0.475 -0.042,0.786 0,0.542 0.193,0.84 0.544,0.84 0.853,0 1.415,-1.775 1.415,-3.064 0,-0.732 -0.192,-1.342 -0.644,-1.342 -0.502,0 -1.022,0.841 -1.189,2.168 L 8.033,9.746 Z"
       inkscape:connector-curvature="0"
       style="fill:#f2f2f2" /><path
       id="path9"
       d="m 15.397,12.113 c -0.234,0.189 -0.653,0.366 -1.172,0.366 -1.021,0 -1.648,-1.058 -1.648,-2.63 0,-2.304 1.08,-4.256 2.595,-4.256 0.36,0 0.678,0.149 0.829,0.258 L 15.75,7.085 C 15.599,6.977 15.407,6.881 15.139,6.881 c -0.946,0 -1.54,1.41 -1.54,2.778 0,0.99 0.352,1.546 0.895,1.546 0.377,0 0.662,-0.163 0.871,-0.312 l 0.032,1.22 z"
       inkscape:connector-curvature="0"
       style="fill:#f2f2f2" /></g><g
     id="g7" /><g
     id="g9" /><g
     id="g11" /><g
     id="g13" /><g
     id="g15" /><g
     id="g17" /></svg>