<?xml version="1.0" encoding="utf-8"?>
<!-- Generator: Adobe Illustrator 17.0.0, SVG Export Plug-In . SVG Version: 6.00 Build 0)  -->
<!DOCTYPE svg PUBLIC "-//W3C//DTD SVG 1.1//EN" "http://www.w3.org/Graphics/SVG/1.1/DTD/svg11.dtd">
<svg version="1.1" id="Layer_1" xmlns="http://www.w3.org/2000/svg" xmlns:xlink="http://www.w3.org/1999/xlink" x="0px" y="0px"
	 width="24px" height="24px" viewBox="0 0 24 24" enable-background="new 0 0 24 24" xml:space="preserve">
<g enable-background="new    ">
	<path fill="#4D4D4D" d="M8.438,3.869H8.414L6.878,4.552L6.831,3.197L9.001,2.25h1.403l-1.463,7.796H7.274L8.438,3.869z"/>
</g>
<g enable-background="new    ">
	<path fill="#4D4D4D" d="M12.217,21.222l0.204-1.115l1.679-1.296c1.559-1.271,2.566-2.183,2.566-3.118
		c0-0.552-0.384-0.947-1.08-0.947c-0.695,0-1.235,0.204-1.643,0.456l-0.348-1.235c0.623-0.384,1.522-0.672,2.41-0.672
		c1.583,0,2.435,0.924,2.435,2.123c0,1.595-1.271,2.698-2.65,3.754l-0.768,0.552v0.023h2.795l-0.276,1.476H12.217z"/>
</g>
<line fill="none" stroke="#4D4D4D" stroke-width="2" stroke-miterlimit="10" x1="15.328" y1="8.789" x2="7.796" y2="16.321"/>
</svg>
