<?xml version="1.0" encoding="UTF-8" standalone="no"?>
<!-- Generator: Adobe Illustrator 17.0.0, SVG Export Plug-In . SVG Version: 6.00 Build 0)  -->

<svg
   xmlns:dc="http://purl.org/dc/elements/1.1/"
   xmlns:cc="http://creativecommons.org/ns#"
   xmlns:rdf="http://www.w3.org/1999/02/22-rdf-syntax-ns#"
   xmlns:svg="http://www.w3.org/2000/svg"
   xmlns="http://www.w3.org/2000/svg"
   xmlns:sodipodi="http://sodipodi.sourceforge.net/DTD/sodipodi-0.dtd"
   xmlns:inkscape="http://www.inkscape.org/namespaces/inkscape"
   version="1.1"
   id="svg2"
   sodipodi:docname="template-save.svg"
   inkscape:version="0.91 r13725"
   x="0px"
   y="0px"
   width="22px"
   height="22px"
   viewBox="0 0 24 24"
   enable-background="new 0 0 24 24"
   xml:space="preserve"><metadata
     id="metadata22"><rdf:RDF><cc:Work
         rdf:about=""><dc:format>image/svg+xml</dc:format><dc:type
           rdf:resource="http://purl.org/dc/dcmitype/StillImage" /></cc:Work></rdf:RDF></metadata><defs
     id="defs20" /><title
     id="title4152">I REALLY hate this icon</title><sodipodi:namedview
     inkscape:window-maximized="1"
     inkscape:window-y="0"
     inkscape:window-x="0"
     inkscape:window-height="773"
     inkscape:window-width="1280"
     inkscape:showpageshadow="false"
     inkscape:pageshadow="2"
     inkscape:current-layer="layer1"
     inkscape:pageopacity="0.0"
     inkscape:document-units="px"
     inkscape:cy="7.9173635"
     showgrid="true"
     borderlayer="true"
     inkscape:cx="8.3014383"
     bordercolor="#666666"
     units="px"
     borderopacity="1.0"
     inkscape:zoom="11.88"
     pagecolor="#ffffff"
     id="base"><sodipodi:guide
       orientation="18,0"
       position="2,20.000017"
       id="guide4085" /><sodipodi:guide
       orientation="0,18"
       position="2,2.0000174"
       id="guide4087" /><sodipodi:guide
       orientation="-18,0"
       position="20,2.0000174"
       id="guide4089" /><sodipodi:guide
       orientation="0,-18"
       position="20,20.000017"
       id="guide4091" /><sodipodi:guide
       orientation="16,0"
       position="3,19.000017"
       id="guide4093" /><sodipodi:guide
       orientation="0,16"
       position="3,3.0000174"
       id="guide4095" /><sodipodi:guide
       orientation="-16,0"
       position="19,3.0000174"
       id="guide4097" /><sodipodi:guide
       orientation="0,-16"
       position="19,19.000017"
       id="guide4099" /><inkscape:grid
       type="xygrid"
       id="grid4101" /></sodipodi:namedview><g
     id="layer1"
     transform="translate(0,-1030.3622)"
     inkscape:groupmode="layer"
     inkscape:label="Capa 1"><g
       id="layer1-7"
       inkscape:label="Capa 1"
       transform="translate(0.09182736,0.82644626)"><path
         d="m 19,1036.655 -3.293,-3.293 -0.008,0.01 0,-0.01 -12.699,0 0,16 3.061,0 c -0.008,-0.285 0.007,-0.569 0.041,-0.852 -0.049,-0.048 -0.095,-0.098 -0.142,-0.148 l -1.96,0 0,-14 3,0 0,5 8,0 0,-5 0.293,0 2.707,2.707 0,4.533 c 0.143,-0.011 0.287,-0.021 0.438,-0.021 0.194,0 0.381,0.01 0.563,0.028 l 0,-4.946 -0.008,0 0.007,-0.01 z m -7.1,1.707 -3.9,0 0,-4 3.9,0 0,4 z"
         id="path16"
         inkscape:connector-curvature="0"
         style="fill:#4d4d4d" /></g></g><g
     id="layer1_1_"
     transform="translate(-551.28571,-607.64789)"
     inkscape:groupmode="layer"
     inkscape:label="Capa 1"><path
       id="rect4112"
       inkscape:connector-curvature="0"
       d="m 557.23683,619.45845 0,8.938 14.938,0 0,-8.938 -14.938,0 z m 0.934,0.969 13.07,0 0,7 -13.07,0 0,-7 z"
       style="fill:#4d4d4d" /></g></svg>