<?xml version="1.0" encoding="utf-8"?>
<!-- Generator: Adobe Illustrator 17.0.0, SVG Export Plug-In . SVG Version: 6.00 Build 0)  -->
<!DOCTYPE svg PUBLIC "-//W3C//DTD SVG 1.1//EN" "http://www.w3.org/Graphics/SVG/1.1/DTD/svg11.dtd">
<svg version="1.1"
	 id="Layer_1" xmlns:dc="http://purl.org/dc/elements/1.1/" xmlns:cc="http://creativecommons.org/ns#" xmlns:rdf="http://www.w3.org/1999/02/22-rdf-syntax-ns#" xmlns:svg="http://www.w3.org/2000/svg" xmlns:sodipodi="http://sodipodi.sourceforge.net/DTD/sodipodi-0.dtd" xmlns:inkscape="http://www.inkscape.org/namespaces/inkscape" sodipodi:docname="text.svg" inkscape:version="0.91 r13725"
	 xmlns="http://www.w3.org/2000/svg" xmlns:xlink="http://www.w3.org/1999/xlink" x="0px" y="0px" width="24px" height="24px"
	 viewBox="0 0 24 24" enable-background="new 0 0 24 24" xml:space="preserve">
<sodipodi:namedview  inkscape:cy="12" inkscape:cx="12.293276" inkscape:zoom="22.163411" showgrid="false" objecttolerance="10" bordercolor="#666666" gridtolerance="10" guidetolerance="10" id="namedview5" borderopacity="1" pagecolor="#ffffff" inkscape:current-layer="Layer_1" inkscape:window-maximized="1" inkscape:window-y="0" inkscape:window-x="0" inkscape:window-height="773" inkscape:pageshadow="2" inkscape:pageopacity="0" inkscape:window-width="1280">
	</sodipodi:namedview>
<g id="text3" enable-background="new    ">
	<path fill="#4D4D4D" d="M6.968,18.483c0.012-0.563,0.06-1.321,0.108-2.137H7.041c-0.576,1.748-1.343,2.351-2.087,2.351
		c-1.043,0-1.727-1.321-1.727-3.225c0-3.225,1.391-6.663,4.114-6.663c0.635,0,1.319,0.194,1.763,0.427l-0.6,4.934
		c-0.168,1.418-0.264,3.186-0.24,4.313H6.968z M7.544,10.655C7.4,10.597,7.22,10.558,6.968,10.558c-1.295,0-2.291,2.35-2.291,4.506
		c0,0.99,0.228,1.807,0.839,1.807c0.648,0,1.439-1.321,1.715-3.729L7.544,10.655z"/>
	<path fill="#4D4D4D" d="M12.597,4.692l-0.732,5.73h0.024c0.468-1.03,1.164-1.612,1.919-1.612c1.248,0,1.764,1.651,1.764,3.341
		c0,2.992-1.271,6.546-3.767,6.546c-1.223,0-1.955-0.836-1.943-2.545c0-0.544,0.048-1.107,0.108-1.632l1.224-9.829H12.597z
		 M11.361,14.637c-0.036,0.331-0.072,0.681-0.06,1.127c0,0.777,0.276,1.204,0.779,1.204c1.223,0,2.027-2.544,2.027-4.39
		c0-1.049-0.275-1.923-0.923-1.923c-0.72,0-1.464,1.205-1.704,3.107L11.361,14.637z"/>
	<path fill="#4D4D4D" d="M20.372,18.153c-0.336,0.271-0.936,0.524-1.68,0.524c-1.463,0-2.362-1.516-2.362-3.769
		c0-3.302,1.547-6.099,3.718-6.099c0.516,0,0.972,0.214,1.188,0.369l-0.359,1.768c-0.217-0.155-0.492-0.292-0.876-0.292
		c-1.355,0-2.207,2.02-2.207,3.981c0,1.418,0.504,2.215,1.283,2.215c0.54,0,0.948-0.233,1.248-0.447L20.372,18.153z"/>
</g>
</svg>
