<?xml version="1.0" encoding="UTF-8" standalone="no"?>
<!-- Created with Inkscape (http://www.inkscape.org/) -->

<svg
   xmlns:dc="http://purl.org/dc/elements/1.1/"
   xmlns:cc="http://creativecommons.org/ns#"
   xmlns:rdf="http://www.w3.org/1999/02/22-rdf-syntax-ns#"
   xmlns:svg="http://www.w3.org/2000/svg"
   xmlns="http://www.w3.org/2000/svg"
   xmlns:xlink="http://www.w3.org/1999/xlink"
   xmlns:sodipodi="http://sodipodi.sourceforge.net/DTD/sodipodi-0.dtd"
   xmlns:inkscape="http://www.inkscape.org/namespaces/inkscape"
   version="1.0"
   width="96"
   height="96"
   id="svg2408"
   style="display:inline"
   inkscape:version="0.48.4 r9939"
   sodipodi:docname="goa-account-owncloud.svg">
  <sodipodi:namedview
     pagecolor="#ffffff"
     bordercolor="#666666"
     borderopacity="1"
     objecttolerance="10"
     gridtolerance="10"
     guidetolerance="10"
     inkscape:pageopacity="0"
     inkscape:pageshadow="2"
     inkscape:window-width="1680"
     inkscape:window-height="991"
     id="namedview119"
     showgrid="false"
     inkscape:zoom="8"
     inkscape:cx="54.323501"
     inkscape:cy="45.223167"
     inkscape:window-x="0"
     inkscape:window-y="-3"
     inkscape:window-maximized="1"
     inkscape:current-layer="svg2408" />
  <defs
     id="defs2410">
    <linearGradient
       id="linearGradient3875">
      <stop
         id="stop3877"
         style="stop-color:#ffffff;stop-opacity:1"
         offset="0" />
      <stop
         id="stop3879"
         style="stop-color:#ffffff;stop-opacity:0.42635658"
         offset="1" />
    </linearGradient>
    <linearGradient
       x1="45.447727"
       y1="92.539597"
       x2="45.447727"
       y2="7.0165396"
       id="ButtonShadow"
       gradientUnits="userSpaceOnUse"
       gradientTransform="scale(1.0058652,0.994169)">
      <stop
         id="stop3750"
         style="stop-color:#000000;stop-opacity:1"
         offset="0" />
      <stop
         id="stop3752"
         style="stop-color:#000000;stop-opacity:0.58823532"
         offset="1" />
    </linearGradient>
    <filter
       color-interpolation-filters="sRGB"
       id="filter3174">
      <feGaussianBlur
         id="feGaussianBlur3176"
         stdDeviation="1.71" />
    </filter>
    <linearGradient
       id="linearGradient3737-6">
      <stop
         id="stop3739-73"
         style="stop-color:#ffffff;stop-opacity:1"
         offset="0" />
      <stop
         id="stop3741-6"
         style="stop-color:#ffffff;stop-opacity:0"
         offset="1" />
    </linearGradient>
    <clipPath
       id="clipPath3613">
      <rect
         width="84"
         height="84"
         rx="6"
         ry="6"
         x="6"
         y="6"
         id="rect3615"
         style="fill:#ffffff;fill-opacity:1;fill-rule:nonzero;stroke:none" />
    </clipPath>
    <linearGradient
       x1="48"
       y1="20.220806"
       x2="48"
       y2="138.66119"
       id="linearGradient2885"
       xlink:href="#linearGradient3737-6"
       gradientUnits="userSpaceOnUse" />
    <radialGradient
       cx="48"
       cy="41.752277"
       r="42"
       fx="48"
       fy="41.752277"
       id="radialGradient2977"
       xlink:href="#linearGradient3737-5"
       gradientUnits="userSpaceOnUse"
       gradientTransform="matrix(1.7146179,6.6254866e-8,-4.2857144e-8,1.1091053,-134.30166,-5.082394)" />
    <radialGradient
       cx="48"
       cy="90.171875"
       r="42"
       fx="48"
       fy="90.171875"
       id="radialGradient2855-1"
       xlink:href="#linearGradient3737-1-4"
       gradientUnits="userSpaceOnUse"
       gradientTransform="matrix(1.1573129,0,0,0.99590774,-7.551021,0.19713)" />
    <linearGradient
       id="linearGradient3737-1-4">
      <stop
         id="stop3739-7-1"
         style="stop-color:#ffffff;stop-opacity:1"
         offset="0" />
      <stop
         id="stop3741-2-0"
         style="stop-color:#ffffff;stop-opacity:0"
         offset="1" />
    </linearGradient>
    <linearGradient
       x1="36.357143"
       y1="6"
       x2="36.357143"
       y2="63.893143"
       id="linearGradient3188-9"
       xlink:href="#linearGradient3737-5"
       gradientUnits="userSpaceOnUse" />
    <linearGradient
       id="linearGradient3737-5">
      <stop
         id="stop3739-6"
         style="stop-color:#ffffff;stop-opacity:1"
         offset="0" />
      <stop
         id="stop3741-7"
         style="stop-color:#ffffff;stop-opacity:0"
         offset="1" />
    </linearGradient>
    <linearGradient
       id="linearGradient5226-7">
      <stop
         id="stop5228-2"
         style="stop-color:#227395;stop-opacity:1"
         offset="0" />
      <stop
         id="stop5230-4"
         style="stop-color:#44a2c9;stop-opacity:1"
         offset="1" />
    </linearGradient>
    <linearGradient
       id="linearGradient3424-7">
      <stop
         id="stop3426-4"
         style="stop-color:#ffffff;stop-opacity:1"
         offset="0" />
      <stop
         id="stop3432-0"
         style="stop-color:#ffffff;stop-opacity:1"
         offset="0.67213112" />
      <stop
         id="stop3428-2"
         style="stop-color:#ffffff;stop-opacity:0"
         offset="1" />
    </linearGradient>
    <filter
       color-interpolation-filters="sRGB"
       id="filter3434">
      <feGaussianBlur
         id="feGaussianBlur3436"
         stdDeviation="2.4779144" />
    </filter>
    <linearGradient
       id="linearGradient3700-1">
      <stop
         id="stop3702-4"
         style="stop-color:#2b91bc;stop-opacity:1"
         offset="0" />
      <stop
         id="stop3704-2"
         style="stop-color:#77bbd8;stop-opacity:1"
         offset="1" />
    </linearGradient>
    <filter
       x="-0.14399999"
       y="-0.14399999"
       width="1.288"
       height="1.288"
       color-interpolation-filters="sRGB"
       id="filter4123">
      <feGaussianBlur
         id="feGaussianBlur4125"
         stdDeviation="3.96" />
    </filter>
    <linearGradient
       x1="45.447727"
       y1="92.539597"
       x2="45.447727"
       y2="7.0165396"
       id="ButtonShadow-0"
       gradientUnits="userSpaceOnUse"
       gradientTransform="matrix(1.0058652,0,0,0.994169,100,0)">
      <stop
         id="stop3750-8"
         style="stop-color:#000000;stop-opacity:1"
         offset="0" />
      <stop
         id="stop3752-5"
         style="stop-color:#000000;stop-opacity:0.58823532"
         offset="1" />
    </linearGradient>
    <linearGradient
       x1="32.251034"
       y1="6.1317081"
       x2="32.251034"
       y2="90.238609"
       id="linearGradient3780"
       xlink:href="#ButtonShadow-0"
       gradientUnits="userSpaceOnUse"
       gradientTransform="matrix(1.0238095,0,0,1.0119048,-1.1428571,-98.071429)" />
    <linearGradient
       x1="32.251034"
       y1="6.1317081"
       x2="32.251034"
       y2="90.238609"
       id="linearGradient3772"
       xlink:href="#ButtonShadow-0"
       gradientUnits="userSpaceOnUse"
       gradientTransform="matrix(1.0238095,0,0,1.0119048,-1.1428571,-98.071429)" />
    <linearGradient
       x1="32.251034"
       y1="6.1317081"
       x2="32.251034"
       y2="90.238609"
       id="linearGradient3725"
       xlink:href="#ButtonShadow-0"
       gradientUnits="userSpaceOnUse"
       gradientTransform="matrix(1.0238095,0,0,1.0119048,-1.1428571,-98.071429)" />
    <linearGradient
       x1="32.251034"
       y1="6.1317081"
       x2="32.251034"
       y2="90.238609"
       id="linearGradient3721"
       xlink:href="#ButtonShadow-0"
       gradientUnits="userSpaceOnUse"
       gradientTransform="translate(0,-97)" />
    <linearGradient
       x1="32.251034"
       y1="6.1317081"
       x2="32.251034"
       y2="90.238609"
       id="linearGradient3071"
       xlink:href="#ButtonShadow-0"
       gradientUnits="userSpaceOnUse"
       gradientTransform="matrix(1.0238095,0,0,1.0119048,-1.1428571,-98.071429)" />
    <radialGradient
       cx="63.98003"
       cy="61.948856"
       r="58.01997"
       fx="63.98003"
       fy="61.948856"
       id="radialGradient4197"
       xlink:href="#linearGradient5226-7"
       gradientUnits="userSpaceOnUse"
       gradientTransform="matrix(1.090012,0,0,0.8408658,-21.739001,104.49175)" />
    <radialGradient
       cx="48"
       cy="46.582424"
       r="42"
       fx="48"
       fy="46.582424"
       id="radialGradient4200"
       xlink:href="#linearGradient3424-7"
       gradientUnits="userSpaceOnUse"
       gradientTransform="matrix(1,0,0,0.9665987,3.0413897e-8,111.55591)" />
    <linearGradient
       x1="48"
       y1="90"
       x2="48"
       y2="5.9877172"
       id="linearGradient4203"
       xlink:href="#linearGradient3700-1"
       gradientUnits="userSpaceOnUse"
       gradientTransform="translate(0,110)" />
    <radialGradient
       cx="63.98003"
       cy="61.948856"
       r="58.01997"
       fx="63.98003"
       fy="61.948856"
       id="radialGradient5232-9"
       xlink:href="#linearGradient3875"
       gradientUnits="userSpaceOnUse"
       gradientTransform="matrix(1.090012,0,0,0.84044811,-21.739002,-5.4878171)" />
    <linearGradient
       id="linearGradient3700-5-1">
      <stop
         id="stop3702-0-2"
         style="stop-color:#3781c6;stop-opacity:1"
         offset="0" />
      <stop
         id="stop3704-4-9"
         style="stop-color:#88b2db;stop-opacity:1"
         offset="1" />
    </linearGradient>
    <linearGradient
       x1="48"
       y1="90"
       x2="48"
       y2="5.9877172"
       id="linearGradient3345"
       xlink:href="#linearGradient3700-5-1"
       gradientUnits="userSpaceOnUse" />
    <linearGradient
       id="linearGradient3543">
      <stop
         id="stop3545"
         style="stop-color:#ffffff;stop-opacity:1"
         offset="0" />
      <stop
         id="stop3555"
         style="stop-color:#ffffff;stop-opacity:1"
         offset="0.30645162" />
      <stop
         id="stop3551"
         style="stop-color:#ffffff;stop-opacity:0.640625"
         offset="0.51899064" />
      <stop
         id="stop3547"
         style="stop-color:#ffffff;stop-opacity:0"
         offset="1" />
    </linearGradient>
    <radialGradient
       cx="74.375"
       cy="67.125"
       r="3.125"
       fx="74.375"
       fy="67.125"
       id="radialGradient3443"
       xlink:href="#linearGradient3543"
       gradientUnits="userSpaceOnUse" />
    <radialGradient
       cx="74.375"
       cy="67.125"
       r="3.125"
       fx="74.375"
       fy="67.125"
       id="radialGradient3445"
       xlink:href="#linearGradient3543"
       gradientUnits="userSpaceOnUse" />
    <radialGradient
       cx="74.375"
       cy="67.125"
       r="3.125"
       fx="74.375"
       fy="67.125"
       id="radialGradient3447"
       xlink:href="#linearGradient3543"
       gradientUnits="userSpaceOnUse" />
    <radialGradient
       cx="74.375"
       cy="67.125"
       r="3.125"
       fx="74.375"
       fy="67.125"
       id="radialGradient3449"
       xlink:href="#linearGradient3543"
       gradientUnits="userSpaceOnUse" />
    <radialGradient
       cx="74.375"
       cy="67.125"
       r="3.125"
       fx="74.375"
       fy="67.125"
       id="radialGradient3451"
       xlink:href="#linearGradient3543"
       gradientUnits="userSpaceOnUse" />
    <linearGradient
       id="linearGradient5226-0">
      <stop
         id="stop5228-7"
         style="stop-color:#ffffff;stop-opacity:1"
         offset="0" />
      <stop
         id="stop5230-6"
         style="stop-color:#ffffff;stop-opacity:0"
         offset="1" />
    </linearGradient>
    <radialGradient
       cx="74.375"
       cy="67.125"
       r="3.125"
       fx="74.375"
       fy="67.125"
       id="radialGradient3216"
       xlink:href="#linearGradient3543"
       gradientUnits="userSpaceOnUse" />
    <radialGradient
       cx="49.233551"
       cy="70.608253"
       r="25.483549"
       fx="49.233551"
       fy="70.608253"
       id="radialGradient4246"
       xlink:href="#linearGradient5226-0"
       gradientUnits="userSpaceOnUse"
       gradientTransform="matrix(0.46811249,-0.52911558,1.7948202,1.5821666,-112.03757,-37.344561)" />
    <radialGradient
       cx="63.875"
       cy="2.2173476"
       r="58.375"
       fx="63.875"
       fy="2.2173476"
       id="radialGradient4248"
       xlink:href="#linearGradient5226-0"
       gradientUnits="userSpaceOnUse"
       gradientTransform="matrix(1.0948456,0,0,0.33117465,-21.844872,32.792567)" />
    <radialGradient
       cx="69.75"
       cy="75.973572"
       r="58.5"
       fx="69.75"
       fy="75.973572"
       id="radialGradient4250"
       xlink:href="#linearGradient5226-0"
       gradientUnits="userSpaceOnUse"
       gradientTransform="matrix(2.2593878,-0.06832043,0.00797869,0.26385907,-105.95706,38.8624)" />
    <radialGradient
       cx="64.230392"
       cy="68.449158"
       r="43.769611"
       fx="64.230392"
       fy="68.449158"
       id="radialGradient4252"
       xlink:href="#linearGradient5226-0"
       gradientUnits="userSpaceOnUse"
       gradientTransform="matrix(1.4544425,0,0,0.92610887,-45.079796,-12.6013)" />
    <radialGradient
       cx="74.375"
       cy="67.125"
       r="3.125"
       fx="74.375"
       fy="67.125"
       id="radialGradient3354"
       xlink:href="#linearGradient3543"
       gradientUnits="userSpaceOnUse" />
    <linearGradient
       x1="11.998966"
       y1="0.92195445"
       x2="11.998966"
       y2="19.387045"
       id="linearGradient4121-9"
       gradientUnits="userSpaceOnUse"
       gradientTransform="scale(0.9219544,1.0846523)">
      <stop
         id="stop4123-7"
         style="stop-color:#313233;stop-opacity:1"
         offset="0" />
      <stop
         id="stop4125-7"
         style="stop-color:#23486a;stop-opacity:1"
         offset="1" />
    </linearGradient>
    <linearGradient
       x1="56"
       y1="16"
       x2="56"
       y2="80"
       id="linearGradient3175"
       xlink:href="#linearGradient4121-9"
       gradientUnits="userSpaceOnUse"
       gradientTransform="matrix(0.88281209,0,0,0.89965146,5.62502,13.562884)" />
    <radialGradient
       inkscape:collect="always"
       xlink:href="#linearGradient5226-7"
       id="radialGradient3091"
       gradientUnits="userSpaceOnUse"
       gradientTransform="matrix(1.090012,0,0,0.8408658,-21.739001,104.49175)"
       cx="63.98003"
       cy="61.948856"
       fx="63.98003"
       fy="61.948856"
       r="58.01997" />
    <linearGradient
       inkscape:collect="always"
       xlink:href="#linearGradient3700-1"
       id="linearGradient3095"
       gradientUnits="userSpaceOnUse"
       gradientTransform="translate(0,110)"
       x1="48"
       y1="90"
       x2="48"
       y2="5.9877172" />
    <radialGradient
       inkscape:collect="always"
       xlink:href="#linearGradient3737-5"
       id="radialGradient3098"
       gradientUnits="userSpaceOnUse"
       gradientTransform="matrix(1.7146179,6.6254866e-8,-4.2857144e-8,1.1091053,-134.30166,-5.082394)"
       cx="48"
       cy="41.752277"
       fx="48"
       fy="41.752277"
       r="42" />
    <linearGradient
       inkscape:collect="always"
       xlink:href="#linearGradient3700-5-1"
       id="linearGradient3101"
       gradientUnits="userSpaceOnUse"
       x1="48"
       y1="90"
       x2="48"
       y2="5.9877172" />
  </defs>
  <metadata
     id="metadata2413">
    <rdf:RDF>
      <cc:Work
         rdf:about="">
        <dc:format>image/svg+xml</dc:format>
        <dc:type
           rdf:resource="http://purl.org/dc/dcmitype/StillImage" />
        <dc:title />
      </cc:Work>
    </rdf:RDF>
  </metadata>
  <g
     id="layer2"
     style="display:none">
    <rect
       width="86"
       height="85"
       rx="6"
       ry="6"
       x="5"
       y="7"
       id="rect3745"
       style="opacity:0.9;fill:url(#ButtonShadow);fill-opacity:1;fill-rule:nonzero;stroke:none;filter:url(#filter3174)" />
  </g>
  <rect
     style="fill:url(#linearGradient3101);fill-opacity:1;fill-rule:nonzero;stroke:none;display:inline"
     id="rect2419-8"
     y="6"
     x="6"
     ry="0"
     rx="6"
     height="84"
     width="84" />
  <path
     style="opacity:0.69999999999999996;fill:#b1cde8;fill-opacity:1;stroke:none;display:inline"
     id="path3522-9"
     inkscape:connector-curvature="0"
     d="m 36.27388,6.096377 c 1.65012,2.2155912 0.11259,5.915398 2.60148,5.878671 1.2119,1.713164 -2.41545,0.511042 0.2036,1.831432 1.5061,1.185988 -1.5934,1.863613 0.27178,2.927919 -2.14968,1.109114 0.34844,5.801103 1.94512,6.97538 2.62795,2.212061 1.1622,-4.683394 4.0945,-5.04209 1.59336,-1.818795 4.39184,-2.986327 6.37927,-4.815989 -1.9423,-0.15766 -3.07647,-1.366454 -1.23702,-2.115252 3.38545,3.468671 0.8489,-1.642711 -1.02514,-2.452023 1.81336,-0.5767594 3.57698,-0.154404 3.32537,-1.6505493 1.91632,-1.4018192 -1.84226,-1.8544226 -3.18394,-1.5374987 -4.45834,0 -8.91667,0 -13.37502,0 z M 8.472035,7.5434349 C 6.022275,8.2412831 5.851393,14.095058 8.313685,10.844535 8.918028,9.50983 11.710762,7.901324 8.472035,7.5434349 z M 19.918529,7.746927 c -1.41226,2.214241 0.204911,3.989518 1.379911,1.288786 0.83171,-1.1277826 -0.617931,-1.2474651 -1.379911,-1.288786 z m 3.528951,0.4974263 c -2.728751,1.2645837 -0.6726,4.2134717 -0.60506,4.8693197 2.87457,0.994334 4.47323,-0.650114 5.56069,2.160413 2.73516,1.576152 -0.0538,4.314918 -1.08054,5.028176 1.84934,-1.610389 5.40416,4.378304 4.47226,1.214321 -1.11179,-0.811673 2.98515,1.303915 0.85962,-1.334006 -1.95607,-3.151091 0.15527,-1.410713 0.97995,-0.675273 2.80488,-2.514847 -3.1736,-2.818813 -1.68123,-5.40689 C 30.64542,13.041357 28.93028,9.83304 26.6145,10.46016 25.06426,12.464727 26.40035,6.0923691 24.12589,9.281181 c -0.11789,1.782531 -0.0429,4.044447 -0.70571,0.956351 -0.44407,-0.540606 0.764,-1.7974072 0.0273,-1.9931787 z m -5.56489,0.022612 C 16.050988,8.8775146 16.149361,11.351938 18.401546,11.617212 19.17298,10.738016 18.70804,8.4334551 17.88259,8.2669652 z M 10.734187,9.058325 c -2.379078,0.563598 -1.407992,2.481632 -0.679572,3.02182 -2.944918,0.737557 4.49569,0.942657 0.79268,1.409793 -3.08079,1.230224 2.966663,2.67961 3.958767,1.220954 3.804388,0.930273 0.136908,-3.045031 -0.197041,-5.199948 -1.612752,-1.7306215 -0.06365,3.989551 -1.521868,0.184316 -0.508787,1.129983 -2.126528,0.166515 -2.352966,-0.636935 z M 86.33531,9.307037 c -3.19244,1.249243 1.98418,5.963472 0.69765,1.674664 -0.12817,-0.517868 0.28819,-1.886169 -0.69765,-1.674664 z M 19.66969,11.2063 c -2.294083,2.155636 2.91599,3.938244 -0.658894,5.54415 -0.53602,-2.001942 -1.458276,1.001608 -3.503467,-0.615111 -3.515899,1.46374 -5.313868,-0.762449 -8.257534,-2.288432 -1.768029,-0.220055 -1.103781,1.679698 -1.220884,3.458474 0,4.915862 0,9.831727 0,14.74759 1.733489,1.823574 0.676329,0.804576 0,0.301602 0.951467,3.240031 -0.419572,7.976266 3.330851,9.860928 0.637563,1.182446 3.312882,6.219986 3.43622,4.712704 -1.341214,-1.404368 -2.717353,-5.614596 -0.447896,-1.862098 2.032756,3.567022 4.774753,5.880584 8.780474,6.729415 2.19006,0.744855 3.99117,3.305322 5.91712,2.741963 1.08905,2.870539 -3.22741,5.627088 0.14491,8.30447 1.76052,2.71045 4.71618,4.488168 3.11596,8.29345 -1.11907,3.716413 -0.63993,7.765882 -1.60779,11.228513 -0.30039,2.107681 2.93804,7.457302 2.65747,3.173531 0.94557,-2.976918 0.92064,-6.252508 3.14759,-8.360679 3.04711,0.02412 0.58237,-3.276114 3.607,-2.844995 1.84565,-2.418872 2.38023,-5.304486 5.49491,-6.264978 0.37205,-2.936144 5.17882,-7.4329 0.21314,-8.576056 -1.34961,-0.665119 -4.8245,-0.904282 -4.55894,-1.232465 0.53803,-2.913429 -4.49347,-3.742841 -6.63424,-4.934817 -2.81075,-1.994856 -7.03423,3.313948 -8.02451,-1.260398 -0.59088,-1.439233 -2.75133,-1.462574 -1.75843,-3.683379 -1.78939,1.779441 -5.28934,1.238624 -4.373028,-2.197824 1.391566,-2.894156 6.735638,-3.031092 7.646258,0.450058 -1.26435,-3.839294 2.44394,-6.828036 4.50253,-9.559465 0.41916,-1.305551 2.90974,-2.427219 2.05268,-0.692077 1.46015,-0.05266 3.67328,-2.687302 1.07941,-1.471281 -0.0367,-2.402702 -2.27298,-1.719417 -2.998,-1.378249 1.34377,-2.132514 8.24498,-0.966646 5.35509,-4.452373 -2.2393,-0.907229 -2.05302,-6.201368 -4.318,-3.251981 0.1906,-1.817243 -4.61001,-5.374474 -4.50525,-2.327163 0.58599,2.726773 0.10714,5.867952 -1.13992,7.655308 -0.26025,-3.995633 -7.075686,-3.112538 -6.199431,-7.370332 1.269451,-2.029282 2.752851,-4.835506 2.894181,-4.583059 2.27505,-0.868509 4.10459,-3.394824 1.46783,-5.055609 -0.14092,1.447483 -1.98303,4.433935 -1.72366,0.821917 -1.705794,2.022175 -1.3162,-3.217808 -2.91375,-3.761252 z m 54.45,1.401837 c -3.99594,0.977352 -5.58007,4.793453 -7.55681,7.954209 -2.91386,1.313584 -2.80294,6.954861 0.45241,5.153113 0.87128,1.52152 -0.60951,3.919724 1.92831,1.930256 2.047,-2.708555 0.35794,-7.089232 3.84142,-8.797142 0.25374,1.32799 -3.21334,6.286746 0.83699,5.471685 3.66156,0.13814 -2.66185,0.364788 -0.88099,2.703385 -1.85027,-1.097665 -0.88884,2.997843 -3.30399,2.044772 -2.09232,1.137967 -3.46433,-0.528366 -2.98503,-2.353789 -1.64596,0.960095 0.5177,3.668626 -2.33958,3.831405 -0.64005,2.272529 -5.90338,1.930002 -2.9102,4.244049 1.3289,3.443647 -4.95154,0.215879 -3.16854,4.348369 1.52545,4.086407 4.7224,-1.354049 6.01943,-2.405153 2.50248,-1.940907 6.21066,3.309444 3.95877,3.504593 2.52508,-0.338743 2.00619,-2.739888 -0.0169,-3.669477 -1.09268,-2.833524 3.45903,1.389634 3.2066,2.810286 1.60595,3.006852 0.94462,-3.078557 2.57885,-0.384373 -0.1908,2.841965 6.57418,0.668223 3.34439,4.290282 -2.77688,0.559235 -5.51013,-0.715787 -7.90083,0.100876 -2.22511,-0.01969 -2.11347,-2.396773 -2.92358,-2.992055 -2.83037,0.229926 -6.32794,0.203926 -8.22277,2.490166 -2.04902,2.810946 -5.00383,6.740445 -2.77053,10.329674 2.23487,5.318818 7.77718,0.27589 10.96298,3.417068 0.94693,1.309731 -0.8206,2.86661 1.2967,4.285291 0.79672,3.022035 -0.90448,5.891404 1.05227,8.780282 1.01184,2.716843 1.63978,6.783262 5.40576,4.300665 3.98577,-2.398255 2.92416,-6.819304 6.21294,-9.268036 -2.60227,-5.035562 3.18363,-7.243505 4.62722,-11.33147 -3.15395,0.461678 -5.96377,-2.682428 -6.72579,-5.847035 -1.32494,-1.53712 -0.98368,-3.80361 0.49633,-0.916013 2.03426,1.970926 2.07821,7.819175 5.84127,4.810628 1.72035,-0.719477 6.4186,-3.464001 2.67511,-4.712977 -2.41304,1.747528 -5.07525,-5.221667 -1.53182,-1.179385 2.57602,1.092759 4.37996,1.743838 4.37996,-1.879216 0,-9.761273 0,-19.654809 0,-29.482214 -0.8024,0.819872 -2.8638,2.334082 -3.90428,1.32791 -1.79037,0.249281 -4.15389,3.732429 -3.59125,0.365356 -1.55624,-0.103042 -0.27858,3.019034 -2.41664,3.106347 -0.21529,1.605089 -2.15987,0.29723 -1.42943,1.821464 -1.50065,-1.064346 -2.77067,-4.424842 0.18614,-2.315577 4.39103,-1.31719 -2.8956,-4.288275 -3.45804,-5.006418 0.94545,-0.226501 -1.02861,-1.211646 -1.26681,-0.881801 z m -36.23968,0.881801 c -1.4615,1.217596 2.77854,1.446893 0,0 z m -19.522371,0.655697 c -1.634647,1.709655 2.603281,1.571667 0,0 z m 9.478421,1.69577 c -1.23786,2.027571 1.82903,0.748571 0,0 z m 27.10058,2.39669 c -1.44923,1.668248 -3.36205,-0.439045 -3.39323,0.994852 0.26265,0.433258 1.31467,3.52554 3.61945,1.243565 1.23698,-0.521451 0.74995,-1.835967 -0.22622,-2.238417 z m -30.85575,0.994852 c -2.74881,2.400285 4.6683,2.621438 0.58232,0.275289 l -0.58232,-0.27529 z m 36.2623,6.647418 c -1.97909,1.2904 0.94943,4.030804 -0.0431,5.318079 -1.2401,2.160392 4.60832,-0.152179 1.48461,-1.875826 -0.22257,-1.48088 -1.83002,-3.287723 -1.44154,-3.442253 z m -1.33468,2.600181 c -2.75739,0.779471 -0.62595,4.803849 0.35067,1.013493 0.0549,-0.219748 0.12936,-1.020842 -0.35067,-1.013493 z m -22.0786,2.916726 c -2.56522,1.748962 -0.39843,3.494707 1.48156,2.707775 -0.38596,-1.055239 -1.46417,-1.720102 -1.48156,-2.707775 z m 48.4553,2.939335 c 1.27995,0.645878 -2.34554,1.749213 -0.0498,2.885924 1.33598,1.570889 0.83231,4.942999 -1.3392,2.556372 0.40344,-2.664667 -2.94356,-4.654664 1.38903,-5.442296 z m -6.58287,0.02261 c -0.17366,1.711943 3.69395,4.372967 -0.47504,3.504593 -2.20475,0.258597 -5.50697,-0.06736 -2.72943,-2.814283 0.87765,-0.526822 3.18206,1.817596 1.98292,-0.373765 0.42513,-0.02712 0.82107,-0.18758 1.22155,-0.316545 z M 66.06643,38.0673 c -1.60811,1.035898 1.11199,1.830212 0,0 z m -40.37941,9.654585 c -0.27111,0.904354 5.08598,1.82085 1.38929,0.371963 l -0.55107,-0.193949 -0.83822,-0.178014 z m 4.16235,1.288785 c -1.62491,1.649392 3.34782,0.492772 0,0 z m 54.3369,15.126272 c -3.53072,0.09109 -3.06133,9.197024 -0.60013,3.808943 0.2334,-1.169216 1.1689,-2.712425 0.60013,-3.808943 z" />
  <g
     id="layer4"
     style="display:inline" />
  <g
     id="layer3"
     style="display:inline">
    <g
       id="g4234">
      <path
         d="M 7,29.523112 C 58.250036,38.347576 38.633643,89 38.633643,89"
         inkscape:connector-curvature="0"
         id="path3583"
         style="fill:none;stroke:url(#radialGradient4246);stroke-width:2;stroke-linecap:butt;stroke-linejoin:miter;stroke-miterlimit:4;stroke-opacity:1;stroke-dasharray:none;display:inline" />
      <path
         d="M 27.676739,88.823511 C 26.616393,73.292454 56.129343,28.640665 88.823332,20.875137"
         inkscape:connector-curvature="0"
         id="path3581"
         style="fill:none;stroke:url(#radialGradient4252);stroke-width:2;stroke-linecap:butt;stroke-linejoin:miter;stroke-miterlimit:4;stroke-opacity:1;stroke-dasharray:none;display:inline" />
      <path
         d="m 77.5,67.125 a 3.125,3.125 0 1 1 -6.25,0 3.125,3.125 0 1 1 6.25,0 z"
         transform="matrix(1.3572422,0,0,1.3554377,-73.268157,-53.871603)"
         id="path3537"
         style="fill:url(#radialGradient3216);fill-opacity:1;fill-rule:evenodd;stroke:none;display:inline" />
      <path
         d="m 77.5,67.125 a 3.125,3.125 0 1 1 -6.25,0 3.125,3.125 0 1 1 6.25,0 z"
         transform="matrix(1.0744835,0,0,1.0730548,-39.513825,-14.090919)"
         id="path3557"
         style="fill:url(#radialGradient3443);fill-opacity:1;fill-rule:evenodd;stroke:none;display:inline" />
      <path
         d="m 77.5,67.125 a 3.125,3.125 0 1 1 -6.25,0 3.125,3.125 0 1 1 6.25,0 z"
         transform="matrix(1.5834493,0,0,1.581344,-53.333661,-72.388859)"
         id="path3561"
         style="fill:url(#radialGradient3445);fill-opacity:1;fill-rule:evenodd;stroke:none;display:inline" />
      <path
         d="m 77.5,67.125 a 3.125,3.125 0 1 1 -6.25,0 3.125,3.125 0 1 1 6.25,0 z"
         transform="matrix(1.0219348,0,0,1.020576,-15.635673,-16.92189)"
         id="path3565"
         style="opacity:0.6;fill:url(#radialGradient3447);fill-opacity:1;fill-rule:evenodd;stroke:none;display:inline" />
      <path
         d="m 77.5,67.125 a 3.125,3.125 0 1 1 -6.25,0 3.125,3.125 0 1 1 6.25,0 z"
         transform="matrix(0.89260147,0,0,0.89141463,-51.611367,-28.371713)"
         id="path3569"
         style="opacity:0.7;fill:url(#radialGradient3449);fill-opacity:1;fill-rule:evenodd;stroke:none;display:inline" />
      <path
         d="m 77.5,67.125 a 3.125,3.125 0 1 1 -6.25,0 3.125,3.125 0 1 1 6.25,0 z"
         transform="matrix(0.56551763,0,0,0.5647657,38.456917,3.261507)"
         id="path3573"
         style="opacity:0.6;fill:url(#radialGradient3451);fill-opacity:1;fill-rule:evenodd;stroke:none;display:inline" />
      <path
         d="M 7.1767242,47.701508 C 35.275882,28.287687 72.387975,27.228751 89.000056,49.289911"
         inkscape:connector-curvature="0"
         id="path3577"
         style="fill:none;stroke:url(#radialGradient4248);stroke-width:2;stroke-linecap:butt;stroke-linejoin:miter;stroke-miterlimit:4;stroke-opacity:1;stroke-dasharray:none;display:inline" />
      <path
         d="M 7.1767242,67.821286 C 58.42676,56.349483 89.17678,37.641619 89.17678,37.641619"
         inkscape:connector-curvature="0"
         id="path3585"
         style="opacity:0.6;fill:none;stroke:url(#radialGradient4250);stroke-width:1.5;stroke-linecap:butt;stroke-linejoin:miter;stroke-miterlimit:4;stroke-opacity:1;stroke-dasharray:none;display:inline" />
      <path
         d="m 77.5,67.125 a 3.125,3.125 0 1 1 -6.25,0 3.125,3.125 0 1 1 6.25,0 z"
         transform="matrix(0.84547158,0,0,0.84434747,15.553432,-31.917967)"
         id="path3352"
         style="opacity:0.6;fill:url(#radialGradient3354);fill-opacity:1;fill-rule:evenodd;stroke:none;display:inline" />
    </g>
  </g>
  <g
     id="layer7" />
</svg>
