<?xml version="1.0" encoding="UTF-8" standalone="no"?>
<!-- Created with Inkscape (http://www.inkscape.org/) -->

<svg
   xmlns:dc="http://purl.org/dc/elements/1.1/"
   xmlns:cc="http://creativecommons.org/ns#"
   xmlns:rdf="http://www.w3.org/1999/02/22-rdf-syntax-ns#"
   xmlns:svg="http://www.w3.org/2000/svg"
   xmlns="http://www.w3.org/2000/svg"
   xmlns:sodipodi="http://sodipodi.sourceforge.net/DTD/sodipodi-0.dtd"
   xmlns:inkscape="http://www.inkscape.org/namespaces/inkscape"
   width="24"
   height="24"
   id="svg3869"
   version="1.1"
   inkscape:version="0.91 r13725"
   sodipodi:docname="folder-explorer.svg">
  <defs
     id="defs3871">
    <style
       type="text/css"
       id="current-color-scheme">
      .ColorScheme-Text {
        color:#4d4d4d;
      }
      .ColorScheme-Background {
        color:#eff0f1;
      }
      .ColorScheme-Highlight {
        color:#3daee9;
      }
      .ColorScheme-ViewText {
        color:#31363b;
      }
      .ColorScheme-ViewBackground {
        color:#fcfcfc;
      }
      .ColorScheme-ViewHover {
        color:#93cee9;
      }
      .ColorScheme-ViewFocus{
        color:#3daee9;
      }
      .ColorScheme-ButtonText {
        color:#31363b;
      }
      .ColorScheme-ButtonBackground {
        color:#eff0f1;
      }
      .ColorScheme-ButtonHover {
        color:#93cee9;
      }
      .ColorScheme-ButtonFocus{
        color:#3daee9;
      }
      </style>
    <linearGradient
       id="linearGradient3257">
      <stop
         offset="0"
         style="stop-color:#a50000;stop-opacity:1"
         id="stop3259" />
      <stop
         offset="1"
         style="stop-color:#e73800;stop-opacity:1"
         id="stop3261" />
    </linearGradient>
  </defs>
  <sodipodi:namedview
     id="base"
     pagecolor="#ffffff"
     bordercolor="#666666"
     borderopacity="1.0"
     inkscape:pageopacity="0.0"
     inkscape:pageshadow="2"
     inkscape:zoom="34.341002"
     inkscape:cx="12.189278"
     inkscape:cy="11.890161"
     inkscape:document-units="px"
     inkscape:current-layer="layer1-3"
     showgrid="true"
     fit-margin-top="0"
     fit-margin-left="0"
     fit-margin-right="0"
     fit-margin-bottom="0"
     inkscape:window-width="1280"
     inkscape:window-height="773"
     inkscape:window-x="0"
     inkscape:window-y="0"
     inkscape:window-maximized="1"
     inkscape:showpageshadow="false"
     inkscape:object-nodes="true"
     inkscape:snap-bbox="true">
    <inkscape:grid
       type="xygrid"
       id="grid4132" />
    <sodipodi:guide
       position="4,18"
       orientation="18,0"
       id="guide4138" />
    <sodipodi:guide
       position="5,3"
       orientation="0,18"
       id="guide4140" />
    <sodipodi:guide
       position="20,2.0000174"
       orientation="-18,0"
       id="guide4142" />
    <sodipodi:guide
       position="2,21"
       orientation="0,-18"
       id="guide4144" />
    <sodipodi:guide
       position="3,19.000017"
       orientation="16,0"
       id="guide4146" />
    <sodipodi:guide
       position="2,4"
       orientation="0,16"
       id="guide4148" />
    <sodipodi:guide
       position="21,20"
       orientation="-16,0"
       id="guide4150" />
    <sodipodi:guide
       position="2,20"
       orientation="0,-16"
       id="guide4152" />
  </sodipodi:namedview>
  <metadata
     id="metadata3874">
    <rdf:RDF>
      <cc:Work
         rdf:about="">
        <dc:format>image/svg+xml</dc:format>
        <dc:type
           rdf:resource="http://purl.org/dc/dcmitype/StillImage" />
        <dc:title />
      </cc:Work>
    </rdf:RDF>
  </metadata>
  <g
     inkscape:label="Capa 1"
     inkscape:groupmode="layer"
     id="layer1"
     transform="translate(-326,-532.3622)">
    <g
       transform="translate(327,-497)"
       id="layer1-9"
       inkscape:label="Capa 1">
      <path
         id="rect4127"
         transform="translate(0,1030.3622)"
         d="m 3,3 0,1 0,15 1,0 9,0 0,-1 -9,0 0,-8 3,0 L 7,9.99023 7.00781,10 l 2,-2 L 18,8 l 0,5 1,0 0,-8 -6.992188,0 -2,-2 L 10,3.0097656 10,3 4,3 Z m 13,14 0,0 0,0 0,0 0,0 0,0 1,0 0,0 0,0 0,0 0,0 0,0 z"
         style="color:#4d4d4d;fill:#f2f2f2;fill-opacity:1;stroke:none"
         inkscape:connector-curvature="0"
         class="ColorScheme-Text"
         sodipodi:nodetypes="ccccccccccccccccccccccccccccccccccc" />
      <g
         transform="matrix(0.54847675,0,0,0.536613,8.2576521,486.48048)"
         id="layer1-3"
         inkscape:label="Capa 1">
        <path
           inkscape:connector-curvature="0"
           id="path4146"
           d="m 12.29286,1043.3622 0.707107,-0.7071 6.000032,6 -0.707075,0.7071 z"
           style="color:#4d4d4d;fill:#f2f2f2;fill-opacity:1;stroke:none;stroke-width:1px;stroke-linecap:butt;stroke-linejoin:miter;stroke-opacity:1"
           class="ColorScheme-Text" />
        <path
           id="rect4095"
           transform="translate(0,1030.3622)"
           d="M 9,3 C 5.6759952,3 3,5.6759952 3,9 c 0,3.324005 2.6759952,6 6,6 3.324005,0 6,-2.675995 6,-6 C 15,5.6759952 12.324005,3 9,3 Z m 0,1 c 2.770005,0 5,2.2299952 5,5 0,2.770005 -2.229995,5 -5,5 C 6.2299952,14 4,11.770005 4,9 4,6.2299952 6.2299952,4 9,4 Z"
           style="color:#4d4d4d;fill:#f2f2f2;fill-opacity:1;stroke:none"
           inkscape:connector-curvature="0"
           class="ColorScheme-Text" />
      </g>
    </g>
  </g>
</svg>
