<?xml version="1.0" encoding="utf-8"?>
<!-- Generator: Adobe Illustrator 17.0.0, SVG Export Plug-In . SVG Version: 6.00 Build 0)  -->
<!DOCTYPE svg PUBLIC "-//W3C//DTD SVG 1.1//EN" "http://www.w3.org/Graphics/SVG/1.1/DTD/svg11.dtd">
<svg version="1.1" id="Layer_1" xmlns="http://www.w3.org/2000/svg" xmlns:xlink="http://www.w3.org/1999/xlink" x="0px" y="0px"
	 width="24px" height="24px" viewBox="0 0 24 24" enable-background="new 0 0 24 24" xml:space="preserve">
<g id="g3" enable-background="new    ">
	<path id="path5" fill="#F2F2F2" d="M8.438,4.869H8.414L6.878,5.552L6.831,4.197l2.17-0.947h1.403l-1.463,7.796H7.274L8.438,4.869z"
		/>
</g>
<g id="g7" enable-background="new    ">
	<path id="path9" fill="#F2F2F2" d="M12.217,22.222l0.204-1.115l1.679-1.296c1.559-1.271,2.566-2.183,2.566-3.118
		c0-0.552-0.384-0.947-1.08-0.947c-0.695,0-1.235,0.204-1.643,0.456l-0.348-1.235c0.623-0.384,1.522-0.672,2.41-0.672
		c1.583,0,2.435,0.924,2.435,2.123c0,1.595-1.271,2.698-2.65,3.754l-0.768,0.552v0.023h2.795l-0.276,1.476h-5.324
		C12.217,22.223,12.217,22.222,12.217,22.222z"/>
</g>
<rect x="10.562" y="8.229" transform="matrix(-0.7071 -0.7071 0.7071 -0.7071 10.1531 31.3152)" fill="#F2F2F2" width="2" height="10.652"/>
<g>
</g>
<g>
</g>
<g>
</g>
<g>
</g>
<g>
</g>
<g>
</g>
</svg>
