<?xml version="1.0" encoding="utf-8"?>
<!-- Generator: Adobe Illustrator 17.0.0, SVG Export Plug-In . SVG Version: 6.00 Build 0)  -->
<!DOCTYPE svg PUBLIC "-//W3C//DTD SVG 1.1//EN" "http://www.w3.org/Graphics/SVG/1.1/DTD/svg11.dtd">
<svg version="1.1" id="Layer_1" xmlns="http://www.w3.org/2000/svg" xmlns:xlink="http://www.w3.org/1999/xlink" x="0px" y="0px"
	 width="514px" height="486px" viewBox="0 0 514 486" enable-background="new 0 0 514 486" xml:space="preserve">
<g>
	<linearGradient id="SVGID_1_" gradientUnits="userSpaceOnUse" x1="17" y1="243" x2="497" y2="243">
		<stop  offset="0" style="stop-color:#728EA0"/>
		<stop  offset="1" style="stop-color:#5F7F93"/>
	</linearGradient>
	<path fill="url(#SVGID_1_)" d="M17,28c0-11,9-20,20-20h440c11,0,20,9,20,20v430c0,11-9,20-20,20H37c-11,0-20-9-20-20V28z"/>
</g>
<linearGradient id="SVGID_2_" gradientUnits="userSpaceOnUse" x1="54" y1="242.75" x2="461.5" y2="242.75">
	<stop  offset="0" style="stop-color:#3C596B"/>
	<stop  offset="1" style="stop-color:#34495E"/>
</linearGradient>
<rect x="54" y="45" fill="url(#SVGID_2_)" width="407.5" height="395.5"/>
<path fill="#FF5033" d="M395.433,137.328c0,0-107.683,202.701-203.755,202.701s-95.36-91.207-46.455-161.001
	c46.978-67.036,133.549-75.484,166.279,0.531s23.228,148.86,92.903,136.719c0,0-69.152,63.343-103.459-29.029
	s-29.782-142.512-78.123-128.794c-39.062,11.087-99.298,149.684-43.285,153.607c52.787,3.693,151.499-152.022,159.416-175.25
	L395.433,137.328z"/>
</svg>
